<svg width="110" height="28" viewBox="0 0 110 28" fill="none" xmlns="http://www.w3.org/2000/svg">
<g clip-path="url(#clip0_311_734)">
<g clip-path="url(#clip1_311_734)">
<path d="M15.0182 18.0731C14.6699 18.0205 14.3138 18.0809 14.0026 18.2453C13.4426 18.5573 12.843 18.7926 12.2198 18.9448C11.5974 19.096 10.9589 19.1719 10.3182 19.1708C9.3443 19.1808 8.37585 19.0243 7.45506 18.708C6.60758 18.3922 5.83502 17.9049 5.18613 17.2768C4.53529 16.5969 4.025 15.7961 3.68431 14.9201C2.97259 12.9147 2.94979 10.7306 3.61949 8.71083C3.94474 7.84169 4.44894 7.04993 5.09969 6.38641C5.72646 5.71816 6.49391 5.19633 7.34702 4.85831C8.29324 4.48949 9.30224 4.30677 10.3182 4.32025C10.9789 4.31637 11.637 4.40328 12.2738 4.57851C12.8838 4.74521 13.4741 4.97608 14.035 5.26723C14.3339 5.43365 14.6781 5.50146 15.0182 5.46094C15.185 5.44984 15.347 5.40033 15.4913 5.3163C15.6357 5.23227 15.7585 5.11601 15.8501 4.97668C15.99 4.81199 16.0916 4.61854 16.1476 4.41018C16.2036 4.20182 16.2127 3.98369 16.1742 3.77142C16.1474 3.56026 16.0668 3.35944 15.9401 3.18804C15.8134 3.01665 15.6448 2.88036 15.4504 2.79214C14.0489 2.02656 12.4943 1.58023 10.8988 1.48533C9.30318 1.39042 7.70634 1.64931 6.22336 2.24332C4.99488 2.74056 3.87554 3.47162 2.928 4.39557C1.9941 5.31359 1.25872 6.41226 0.767115 7.62395C0.259231 8.92352 0.00616055 10.308 0.0216055 11.7025C-0.00355894 13.2041 0.26811 14.6959 0.821136 16.0931C1.34693 17.3156 2.12344 18.4153 3.10087 19.3214C4.0422 20.1925 5.14252 20.8756 6.34221 21.3338C7.59806 21.7937 8.92617 22.0269 10.2642 22.0225C10.8735 22.0249 11.4815 21.9673 12.0794 21.8503C12.6755 21.7328 13.2637 21.5782 13.8405 21.3876C14.3896 21.2059 14.9211 20.9754 15.4287 20.6989C15.6114 20.6129 15.7711 20.4853 15.895 20.3264C16.0189 20.1675 16.1035 19.9817 16.1418 19.7842C16.1895 19.5654 16.1829 19.3384 16.1227 19.1228C16.0624 18.9072 15.9503 18.7094 15.7961 18.5466C15.7059 18.4189 15.5903 18.3109 15.4565 18.2295C15.3227 18.148 15.1735 18.0948 15.0182 18.0731V18.0731Z" fill="#434EC4"/>
<path d="M31.549 6.41871C31.3485 6.41009 31.1485 6.44401 30.9623 6.51822C30.776 6.59243 30.6077 6.70524 30.4685 6.84916C30.3331 6.99281 30.2279 7.16206 30.1592 7.34689C30.0906 7.53173 30.0598 7.7284 30.0688 7.92528V8.47411C29.849 8.21981 29.6067 7.9857 29.3449 7.77463C28.7917 7.31853 28.1677 6.95507 27.4973 6.6985C26.7727 6.4253 26.0031 6.29023 25.2284 6.30033C23.9821 6.28977 22.7592 6.63724 21.7061 7.30113C20.6481 7.9987 19.7915 8.95949 19.2211 10.0883C18.6164 11.3598 18.3027 12.7491 18.3027 14.1561C18.3027 15.563 18.6164 16.9523 19.2211 18.2238C19.7991 19.3633 20.6671 20.3318 21.7385 21.0325C22.8059 21.7102 24.0491 22.0619 25.3148 22.0441C26.0308 22.0479 26.7414 21.9202 27.4109 21.6674C28.0242 21.4245 28.5992 21.0947 29.118 20.6881C29.476 20.3998 29.7955 20.0671 30.0688 19.6981V20.29C30.0589 20.6864 30.2019 21.0715 30.4685 21.3661C30.6128 21.501 30.7827 21.6058 30.9683 21.6742C31.1538 21.7426 31.3513 21.7732 31.549 21.7643C31.7471 21.7777 31.9458 21.7492 32.1321 21.6806C32.3183 21.612 32.4878 21.5048 32.6294 21.3661C32.9 21.0739 33.0437 20.6872 33.0292 20.29V7.88224C33.0427 7.68491 33.0141 7.48697 32.9452 7.30147C32.8763 7.11598 32.7686 6.94715 32.6294 6.80611C32.489 6.66643 32.3193 6.5593 32.1326 6.49234C31.9458 6.42538 31.7466 6.40024 31.549 6.41871V6.41871ZM28.0591 18.7081C27.3475 19.173 26.5115 19.4131 25.6605 19.3968C24.8199 19.412 23.9945 19.1717 23.2944 18.7081C22.6072 18.2298 22.0532 17.5855 21.6845 16.8356C21.2888 15.998 21.0893 15.0817 21.1011 14.1561C21.0805 13.2226 21.2804 12.2974 21.6845 11.455C22.0519 10.7072 22.6063 10.066 23.2944 9.59327C23.9936 9.12643 24.8188 8.88248 25.6605 8.8938C26.5126 8.88067 27.3487 9.1245 28.0591 9.59327C28.7555 10.0568 29.312 10.7004 29.669 11.455C30.0645 12.2885 30.2605 13.202 30.2416 14.1238C30.2621 15.0595 30.0662 15.9874 29.669 16.8356C29.3104 17.5921 28.7544 18.2388 28.0591 18.7081V18.7081Z" fill="#434EC4"/>
<path d="M43.6067 9.46411C43.7825 9.46823 43.9573 9.437 44.1207 9.37229C44.284 9.30757 44.4326 9.2107 44.5575 9.08747C44.6872 8.97106 44.7901 8.82808 44.8591 8.66833C44.9282 8.50858 44.9616 8.33585 44.9573 8.162C44.9545 7.80611 44.8113 7.46559 44.5586 7.21393C44.3059 6.96227 43.964 6.81965 43.6067 6.81684H41.2946V4.54621C41.3081 4.34889 41.2795 4.15094 41.2106 3.96545C41.1417 3.77995 41.034 3.61112 40.8948 3.47009C40.7583 3.32266 40.5905 3.2075 40.4035 3.13302C40.2166 3.05854 40.0153 3.02663 39.8144 3.03963C39.6137 3.02889 39.4131 3.06182 39.2265 3.13616C39.0399 3.2105 38.8718 3.32446 38.7339 3.47009C38.5928 3.61018 38.4831 3.7786 38.4124 3.96414C38.3416 4.14968 38.3112 4.3481 38.3234 4.54621V6.81684H36.8215C36.4607 6.81226 36.1121 6.94728 35.8491 7.19348C35.7222 7.31554 35.6228 7.46312 35.5576 7.62641C35.4924 7.78969 35.4629 7.96493 35.471 8.14047C35.4668 8.31553 35.4982 8.48964 35.5632 8.65235C35.6282 8.81507 35.7254 8.96305 35.8491 9.08747C36.1121 9.33367 36.4607 9.46869 36.8215 9.46411H38.4098V17.987C38.3762 18.7265 38.5168 19.4636 38.8204 20.1393C39.0441 20.587 39.3931 20.9607 39.8252 21.2154C40.2265 21.4384 40.6663 21.5844 41.1217 21.6459C41.5051 21.697 41.8911 21.7258 42.2778 21.7319C42.8436 21.7359 43.3999 21.5871 43.8876 21.3015C44.1002 21.2078 44.2831 21.0581 44.4164 20.8684C44.5497 20.6787 44.6284 20.4564 44.644 20.2254C44.6632 19.9115 44.5585 19.6025 44.3522 19.3645C44.2757 19.2688 44.1788 19.1912 44.0686 19.1373C43.9584 19.0833 43.8376 19.0543 43.7148 19.0524C43.5078 19.0466 43.3019 19.0833 43.1097 19.16C42.9412 19.2405 42.7563 19.281 42.5695 19.2784C42.3517 19.2767 42.1359 19.2366 41.932 19.16C41.7297 19.0777 41.5645 18.9246 41.4675 18.7296C41.344 18.4711 41.2847 18.1869 41.2946 17.9009V9.46411H43.6067Z" fill="#434EC4"/>
<path d="M60.5805 6.41867C60.3801 6.41006 60.1801 6.44398 59.9938 6.51819C59.8075 6.5924 59.6392 6.70521 59.5001 6.84912C59.3625 6.99133 59.256 7.16034 59.1872 7.34554C59.1184 7.53074 59.0888 7.72811 59.1003 7.92525V8.47408C58.8805 8.21977 58.6383 7.98567 58.3764 7.77459C57.8232 7.31849 57.1992 6.95504 56.5288 6.69847C55.8007 6.42443 55.0274 6.28936 54.2491 6.3003C53.0065 6.2918 51.7876 6.63919 50.7377 7.3011C49.6797 7.99867 48.823 8.95945 48.2526 10.0883C47.6479 11.3597 47.3343 12.7491 47.3343 14.156C47.3343 15.5629 47.6479 16.9523 48.2526 18.2238C48.8301 19.3602 49.6938 20.328 50.7593 21.0325C51.8266 21.7102 53.0699 22.0618 54.3355 22.044C55.0551 22.049 55.7694 21.9213 56.4424 21.6674C57.0558 21.4244 57.6307 21.0946 58.1495 20.6881C58.5075 20.3998 58.827 20.0671 59.1003 19.6981V20.2899C59.0858 20.6871 59.2295 21.0739 59.5001 21.3661C59.6439 21.5015 59.8138 21.6066 59.9995 21.675C60.1851 21.7434 60.3828 21.7738 60.5805 21.7642C60.7786 21.7777 60.9773 21.7492 61.1636 21.6806C61.3498 21.6119 61.5193 21.5047 61.6609 21.3661C61.9275 21.0715 62.0706 20.6864 62.0607 20.2899V7.8822C62.0716 7.68513 62.0417 7.48794 61.9729 7.30284C61.9042 7.11773 61.798 6.94865 61.6609 6.80608C61.5205 6.6664 61.3509 6.55927 61.1641 6.49231C60.9774 6.42535 60.7781 6.40021 60.5805 6.41867ZM57.0907 18.708C56.3802 19.158 55.5556 19.397 54.7137 19.397C53.8717 19.397 53.0472 19.158 52.3367 18.708C51.6332 18.2328 51.061 17.5889 50.6728 16.8356C50.2858 15.9954 50.0902 15.0803 50.1002 14.156C50.0818 13.2239 50.2776 12.3 50.6728 11.4549C51.0476 10.7088 51.605 10.0685 52.2935 9.59324C52.9991 9.13039 53.8255 8.88371 54.6705 8.88371C55.5154 8.88371 56.3418 9.13039 57.0474 9.59324C57.7496 10.0532 58.3105 10.6975 58.6681 11.4549C59.0636 12.2885 59.2596 13.202 59.2407 14.1237C59.2563 15.0486 59.0604 15.9649 58.6681 16.8033C58.3261 17.5694 57.7807 18.2279 57.0907 18.708V18.708Z" fill="#434EC4"/>
<path d="M67.7655 0.500026C67.565 0.49141 67.365 0.52533 67.1788 0.599542C66.9925 0.673753 66.8242 0.78656 66.685 0.930478C66.5388 1.0678 66.4244 1.23521 66.3497 1.42106C66.2751 1.60691 66.242 1.80673 66.2528 2.0066V20.3007C66.2424 20.6992 66.3899 21.0858 66.6634 21.3769C66.8062 21.5139 66.9759 21.62 67.1618 21.6885C67.3477 21.757 67.5459 21.7865 67.7438 21.775C67.9298 21.7805 68.1148 21.7481 68.2876 21.6796C68.4605 21.6111 68.6174 21.5081 68.7487 21.3769C68.8915 21.237 69.0037 21.0692 69.0781 20.884C69.1525 20.6987 69.1875 20.5001 69.1808 20.3007V2.0066C69.1944 1.80928 69.1657 1.61134 69.0968 1.42584C69.0279 1.24034 68.9203 1.07151 68.7811 0.930478C68.656 0.78628 68.4994 0.672516 68.3234 0.597904C68.1474 0.523291 67.9565 0.489808 67.7655 0.500026V0.500026Z" fill="#434EC4"/>
<path d="M84.3287 6.5263C84.1285 6.52035 83.9294 6.5555 83.7435 6.62956C83.5576 6.70361 83.389 6.81499 83.2482 6.95675C83.109 7.09778 83.0014 7.26661 82.9325 7.45211C82.8636 7.63761 82.8349 7.83555 82.8484 8.03287V15.7595C82.8643 16.4309 82.7042 17.0948 82.3839 17.6857C82.1038 18.2226 81.6816 18.6729 81.163 18.9878C80.5756 19.3009 79.9166 19.4566 79.2506 19.4398C78.8007 19.4758 78.3483 19.4178 77.9222 19.2695C77.4961 19.1213 77.1059 18.8861 76.7764 18.5789C76.1484 17.7911 75.8469 16.7939 75.9336 15.7917V7.98983C75.9467 7.78971 75.9146 7.58922 75.8399 7.40303C75.7651 7.21683 75.6495 7.04965 75.5014 6.9137C75.3742 6.77505 75.2188 6.66495 75.0455 6.59074C74.8723 6.51652 74.6852 6.47988 74.4966 6.48325C74.2959 6.4725 74.0953 6.50545 73.9087 6.57979C73.7221 6.65412 73.5541 6.76807 73.4162 6.9137C73.277 7.05474 73.1693 7.22357 73.1004 7.40906C73.0315 7.59456 73.0029 7.7925 73.0164 7.98983V16.5235C72.9939 17.5148 73.2009 18.498 73.6215 19.3968C73.9998 20.1995 74.5993 20.8787 75.3502 21.3553C76.1815 21.8283 77.1266 22.0664 78.0837 22.044C78.8502 22.0518 79.6128 21.9355 80.3418 21.6997C80.9924 21.4873 81.5971 21.1551 82.1246 20.7204C82.4066 20.4769 82.6603 20.2025 82.8809 19.9025V20.4298C82.9186 21.3036 82.7366 22.1728 82.3515 22.9587C82.0505 23.5763 81.5475 24.0734 80.9253 24.3685C80.1718 24.6902 79.3569 24.8444 78.5375 24.8204C77.9073 24.8346 77.2802 24.7286 76.6899 24.5084C76.1497 24.3075 75.7175 24.1353 75.3934 23.9918C75.2338 23.9199 75.0607 23.8827 74.8856 23.8827C74.7104 23.8827 74.5373 23.9199 74.3778 23.9918C74.2041 24.0948 74.0532 24.2318 73.9344 24.3946C73.8155 24.5574 73.7311 24.7425 73.6863 24.9388C73.6179 25.1001 73.59 25.2755 73.6051 25.4499C73.6201 25.6243 73.6777 25.7924 73.7727 25.9396C74.0164 26.289 74.3585 26.5586 74.7559 26.7144C75.2917 26.9812 75.8688 27.1558 76.463 27.231C77.1459 27.3682 77.8409 27.4367 78.5375 27.4354C79.7981 27.457 81.0483 27.2035 82.2002 26.6929C83.2859 26.2155 84.1931 25.4098 84.7932 24.39C85.5008 23.1384 85.8415 21.7141 85.7765 20.2792V7.98983C85.7886 7.79171 85.7582 7.59329 85.6874 7.40775C85.6167 7.22221 85.507 7.0538 85.3659 6.9137C85.2303 6.77977 85.0678 6.67599 84.889 6.60921C84.7102 6.54243 84.5192 6.51417 84.3287 6.5263Z" fill="#434EC4"/>
<path d="M104.533 18.9879C104.326 18.9821 104.12 19.0187 103.928 19.0955C103.756 19.1772 103.567 19.2177 103.377 19.2139C103.163 19.2111 102.951 19.171 102.75 19.0955C102.548 19.0132 102.383 18.8601 102.286 18.665C102.157 18.4082 102.098 18.1228 102.113 17.8364V9.46416H104.414C104.592 9.4685 104.768 9.43742 104.933 9.37273C105.098 9.30804 105.249 9.21106 105.376 9.08751C105.503 8.96938 105.605 8.82608 105.673 8.66673C105.742 8.50739 105.777 8.3355 105.775 8.16205C105.779 7.98517 105.745 7.80956 105.676 7.64649C105.607 7.48341 105.505 7.33645 105.376 7.21505C105.253 7.08447 105.104 6.98142 104.938 6.91277C104.772 6.84411 104.594 6.81143 104.414 6.81689H102.113V4.54626C102.125 4.34815 102.095 4.14972 102.024 3.96418C101.953 3.77864 101.843 3.61023 101.702 3.47014C101.567 3.32082 101.4 3.20435 101.212 3.12973C101.025 3.0551 100.823 3.02429 100.622 3.03968C100.43 3.03815 100.24 3.0752 100.062 3.14862C99.8853 3.22203 99.7248 3.3303 99.5906 3.46695C99.4565 3.6036 99.3514 3.76581 99.2816 3.94387C99.2119 4.12193 99.1789 4.31218 99.1848 4.50322V6.77384H97.5965C97.2319 6.76645 96.879 6.90166 96.6133 7.15048C96.49 7.27468 96.3937 7.42288 96.3305 7.58582C96.2673 7.74877 96.2385 7.92295 96.2459 8.09747C96.2395 8.44881 96.3714 8.78871 96.6133 9.04447C96.879 9.29329 97.2319 9.4285 97.5965 9.42111H99.1848V17.944C99.1482 18.6826 99.2851 19.4196 99.5845 20.0963C99.8122 20.5447 100.165 20.9183 100.6 21.1724C101.001 21.3954 101.441 21.5414 101.897 21.6029C102.28 21.6544 102.666 21.6832 103.053 21.6889C103.619 21.6929 104.175 21.5441 104.663 21.2585C104.874 21.1629 105.055 21.0126 105.188 20.8234C105.321 20.6341 105.401 20.4127 105.419 20.1824C105.438 19.8685 105.333 19.5595 105.127 19.3215C105.057 19.2277 104.968 19.1496 104.865 19.0921C104.763 19.0347 104.65 18.9992 104.533 18.9879V18.9879Z" fill="#434EC4"/>
<path d="M98.3528 11.3581H98.2664L93.9446 12.0253L94.6577 3.49162C94.667 3.46 94.667 3.42639 94.6577 3.39477C94.6505 3.3792 94.6401 3.36536 94.627 3.35422C94.6139 3.34307 94.5986 3.33487 94.5821 3.3302H94.4848C94.4498 3.34197 94.4195 3.36461 94.3984 3.39477L86.2518 15.7595C86.2427 15.7874 86.2427 15.8176 86.2518 15.8456C86.241 15.8732 86.241 15.904 86.2518 15.9316C86.2565 15.9469 86.2648 15.9607 86.2761 15.972C86.2874 15.9833 86.3014 15.9916 86.3167 15.9962H86.4031L90.7249 15.329L90.0118 23.8627C90.0018 23.8942 90.0018 23.928 90.0118 23.9595C90.0329 23.9897 90.0632 24.0123 90.0982 24.0241C90.1298 24.0348 90.1639 24.0348 90.1955 24.0241C90.2305 24.0123 90.2607 23.9897 90.2819 23.9595L98.3528 11.5733C98.3619 11.549 98.3619 11.5223 98.3528 11.498C98.3637 11.4703 98.3637 11.4396 98.3528 11.4119C98.3566 11.3942 98.3566 11.3758 98.3528 11.3581Z" fill="#FCB01F"/>
<path d="M108.477 22.5821C109.312 22.5821 109.989 21.9076 109.989 21.0755C109.989 20.2435 109.312 19.569 108.477 19.569C107.641 19.569 106.964 20.2435 106.964 21.0755C106.964 21.9076 107.641 22.5821 108.477 22.5821Z" fill="#FCB01F"/>
</g>
</g>
<defs>
<clipPath id="clip0_311_734">
<rect width="110" height="27" fill="white" transform="translate(0 0.5)"/>
</clipPath>
<clipPath id="clip1_311_734">
<rect width="110" height="27" fill="white" transform="translate(0 0.5)"/>
</clipPath>
</defs>
</svg>
