<svg width="195" height="66" viewBox="0 0 195 66" fill="none" xmlns="http://www.w3.org/2000/svg">
<g filter="url(#filter0_d_5774_13560)">
<path d="M42.1417 50.6444C43.1682 52.5981 45.6104 53.3739 47.3691 52.0406C50.5867 49.6012 53.1615 46.3826 54.8338 42.6612C57.0552 37.7178 57.5555 32.1723 56.2549 26.9111C54.9542 21.6498 51.9276 16.9763 47.6586 13.6374C43.3896 10.2984 38.1247 8.4867 32.705 8.4917C27.2854 8.49669 22.0238 10.3181 17.761 13.6649C13.4982 17.0117 10.4802 21.6908 9.18919 26.9544C7.8982 32.2181 8.40876 37.7626 10.6393 42.7019C12.3184 46.4202 14.8992 49.6341 18.1212 52.0675C19.8824 53.3976 22.3231 52.6173 23.346 50.6617C24.369 48.7062 23.5672 46.3223 21.9196 44.8539C20.232 43.3497 18.8656 41.4998 17.9232 39.4127C16.4282 36.1022 16.086 32.3861 16.9513 28.8582C17.8165 25.3303 19.8393 22.1942 22.6964 19.9511C25.5535 17.708 29.08 16.4872 32.7124 16.4838C36.3448 16.4805 39.8736 17.6948 42.7348 19.9326C45.596 22.1705 47.6245 25.3029 48.4963 28.8291C49.368 32.3554 49.0327 36.0721 47.5438 39.3854C46.6052 41.4742 45.2423 43.3267 43.5574 44.8339C41.9126 46.3054 41.1151 48.6907 42.1417 50.6444Z" fill="url(#paint0_linear_5774_13560)"/>
<circle cx="32.523" cy="11.8967" r="8.76614" fill="url(#paint1_linear_5774_13560)"/>
<path d="M36.1323 14.9906C36.1323 15.9479 35.752 16.866 35.075 17.543C34.3981 18.2199 33.48 18.6002 32.5227 18.6002C31.5654 18.6002 30.6472 18.2199 29.9703 17.543C29.2934 16.866 28.9131 15.9479 28.9131 14.9906L31.3834 14.9906C31.3834 15.2928 31.5034 15.5825 31.7171 15.7962C31.9307 16.0098 32.2205 16.1299 32.5227 16.1299C32.8248 16.1299 33.1146 16.0098 33.3283 15.7962C33.5419 15.5825 33.6619 15.2928 33.6619 14.9906H36.1323Z" fill="white"/>
<rect x="-1.75064" y="-0.0573101" width="14.395" height="14.395" rx="3.09393" transform="matrix(0.866025 -0.5 0.83147 0.55557 21.901 38.3039)" fill="url(#paint2_linear_5774_13560)" stroke="#FFC700" stroke-width="2.06262"/>
<rect x="-1.75064" y="-0.0573101" width="14.395" height="14.395" rx="3.09393" transform="matrix(0.866025 -0.5 0.83147 0.55557 21.901 33.342)" fill="url(#paint3_linear_5774_13560)" stroke="#00FF19" stroke-width="2.06262"/>
<rect x="-1.75064" y="-0.0573101" width="14.395" height="14.395" rx="3.09393" transform="matrix(0.866025 -0.5 0.83147 0.55557 21.901 29.0221)" fill="url(#paint4_linear_5774_13560)" stroke="#0F0054" stroke-width="2.06262"/>
</g>
<path d="M72.1732 36.0423C72.2792 36.8068 72.4874 37.3783 72.7977 37.7567C73.3654 38.4455 74.338 38.7899 75.7156 38.7899C76.5406 38.7899 77.2104 38.6991 77.7251 38.5174C78.7015 38.1692 79.1897 37.5221 79.1897 36.5759C79.1897 36.0234 78.9475 35.5958 78.4631 35.293C77.9787 34.9978 77.218 34.7367 76.181 34.5096L74.4099 34.1122C72.669 33.7186 71.4655 33.291 70.7995 32.8293C69.6717 32.0572 69.1078 30.85 69.1078 29.2075C69.1078 27.7088 69.6528 26.4637 70.7427 25.4722C71.8326 24.4806 73.4335 23.9849 75.5452 23.9849C77.3088 23.9849 78.8113 24.4541 80.0526 25.3927C81.3015 26.3237 81.9562 27.6786 82.0168 29.4573H78.6561C78.5956 28.4506 78.1566 27.7353 77.3391 27.3115C76.7941 27.0314 76.1167 26.8914 75.3068 26.8914C74.4061 26.8914 73.6871 27.073 73.1497 27.4363C72.6123 27.7997 72.3436 28.3068 72.3436 28.9577C72.3436 29.5557 72.6085 30.0022 73.1383 30.2974C73.4789 30.4942 74.2055 30.7251 75.3182 30.99L78.202 31.6826C79.466 31.9853 80.4197 32.3903 81.0631 32.8974C82.0622 33.6846 82.5617 34.8237 82.5617 36.3148C82.5617 37.8438 81.9751 39.1154 80.8019 40.1296C79.6363 41.1363 77.9863 41.6396 75.8518 41.6396C73.6719 41.6396 71.9575 41.1439 70.7086 40.1523C69.4598 39.1532 68.8353 37.7832 68.8353 36.0423H72.1732ZM83.6176 31.2511V28.9464H85.3434V25.4949H88.5451V28.9464H90.5546V31.2511H88.5451V37.7908C88.5451 38.2979 88.6094 38.6158 88.7381 38.7445C88.8667 38.8656 89.2603 38.9261 89.9188 38.9261C90.0172 38.9261 90.1194 38.9261 90.2254 38.9261C90.3389 38.9186 90.4487 38.911 90.5546 38.9034V41.3217L89.0219 41.3785C87.493 41.4315 86.4484 41.1666 85.8883 40.5837C85.525 40.2129 85.3434 39.6414 85.3434 38.8694V31.2511H83.6176ZM99.4558 35.1908C99.2514 35.3195 99.0433 35.4255 98.8314 35.5087C98.627 35.5844 98.3432 35.6563 97.9798 35.7244L97.2532 35.8607C96.572 35.9818 96.0838 36.1294 95.7886 36.3035C95.2891 36.5987 95.0393 37.0566 95.0393 37.6772C95.0393 38.2298 95.1907 38.6309 95.4934 38.8807C95.8038 39.1229 96.1784 39.244 96.6174 39.244C97.3138 39.244 97.9534 39.0397 98.5362 38.6309C99.1266 38.2222 99.4331 37.4767 99.4558 36.3943V35.1908ZM97.4916 33.6808C98.0896 33.6051 98.5172 33.5105 98.7746 33.397C99.2363 33.2002 99.4672 32.8936 99.4672 32.4773C99.4672 31.9702 99.2893 31.622 98.9335 31.4328C98.5854 31.236 98.0707 31.1376 97.3895 31.1376C96.625 31.1376 96.0838 31.3268 95.7659 31.7053C95.5388 31.9853 95.3875 32.3638 95.3118 32.8406H92.1895C92.2577 31.7583 92.5604 30.8689 93.0978 30.1725C93.9531 29.0826 95.4215 28.5376 97.503 28.5376C98.8579 28.5376 100.061 28.8063 101.113 29.3437C102.166 29.8811 102.692 30.8954 102.692 32.3865V38.0633C102.692 38.4568 102.699 38.9337 102.714 39.4938C102.737 39.9177 102.801 40.2053 102.907 40.3567C103.013 40.5081 103.172 40.6329 103.384 40.7313V41.2082H99.8645C99.7661 40.9584 99.698 40.7238 99.6602 40.5043C99.6223 40.2848 99.5921 40.035 99.5693 39.7549C99.1228 40.2394 98.6081 40.6519 98.0253 40.9925C97.3289 41.3936 96.5417 41.5942 95.6637 41.5942C94.5435 41.5942 93.6163 41.2763 92.8821 40.6405C92.1555 39.9971 91.7922 39.0889 91.7922 37.9157C91.7922 36.3943 92.3788 35.293 93.552 34.6118C94.1953 34.2409 95.1415 33.976 96.3904 33.817L97.4916 33.6808ZM112.967 33.2721C112.906 32.8104 112.751 32.3941 112.501 32.0232C112.138 31.5236 111.574 31.2738 110.809 31.2738C109.719 31.2738 108.974 31.815 108.573 32.8974C108.361 33.4726 108.255 34.2371 108.255 35.1908C108.255 36.0991 108.361 36.8295 108.573 37.382C108.959 38.4114 109.685 38.9261 110.753 38.9261C111.509 38.9261 112.047 38.7218 112.365 38.313C112.683 37.9043 112.876 37.3745 112.944 36.7235H116.248C116.172 37.7075 115.816 38.6385 115.18 39.5165C114.166 40.9319 112.664 41.6396 110.673 41.6396C108.682 41.6396 107.218 41.0492 106.279 39.8685C105.341 38.6877 104.871 37.155 104.871 35.2703C104.871 33.1434 105.39 31.4896 106.427 30.3088C107.464 29.128 108.894 28.5376 110.719 28.5376C112.27 28.5376 113.538 28.8858 114.522 29.5822C115.514 30.2785 116.1 31.5085 116.282 33.2721H112.967ZM118.484 24.5298H121.663V33.5446L125.694 28.8896H129.702L125.376 33.624L129.872 41.2082H125.966L123.003 35.9174L121.663 37.3139V41.2082H118.484V24.5298ZM134.845 27.3569H131.609V24.3709H134.845V27.3569ZM130.054 43.5811C130.235 43.5962 130.364 43.6038 130.44 43.6038C130.515 43.6114 130.583 43.6151 130.644 43.6151C130.962 43.6151 131.2 43.5357 131.359 43.3767C131.526 43.2253 131.609 42.9264 131.609 42.4798V28.8896H134.845V42.5366C134.845 43.7854 134.599 44.7089 134.107 45.3068C133.615 45.9048 132.65 46.2037 131.212 46.2037C131.113 46.2037 130.966 46.2 130.769 46.1924C130.58 46.1848 130.341 46.1773 130.054 46.1697V43.5811ZM141.157 28.8328V36.2921C141.157 36.996 141.241 37.5259 141.407 37.8816C141.702 38.5098 142.281 38.8239 143.144 38.8239C144.249 38.8239 145.006 38.3774 145.415 37.4842C145.627 36.9998 145.733 36.3602 145.733 35.5655V28.8328H149.014V41.2082H145.869V39.4597C145.839 39.4976 145.763 39.6111 145.642 39.8004C145.521 39.9896 145.377 40.1561 145.211 40.2999C144.703 40.754 144.211 41.0644 143.735 41.2309C143.265 41.3974 142.713 41.4807 142.077 41.4807C140.245 41.4807 139.012 40.8222 138.376 39.5052C138.02 38.7785 137.842 37.7075 137.842 36.2921V28.8328H141.157ZM159.005 28.5376C160.284 28.5376 161.329 28.8745 162.139 29.5481C162.956 30.2142 163.365 31.323 163.365 32.8747V41.2082H160.05V33.6808C160.05 33.0299 159.963 32.5303 159.789 32.1821C159.471 31.5463 158.865 31.2284 157.972 31.2284C156.874 31.2284 156.121 31.6939 155.713 32.6249C155.501 33.1169 155.395 33.7451 155.395 34.5096V41.2082H152.17V28.8555H155.293V30.6608C155.709 30.025 156.102 29.567 156.473 29.287C157.139 28.7874 157.983 28.5376 159.005 28.5376ZM169.689 27.3569H166.408V24.3709H169.689V27.3569ZM166.408 28.8328H169.689V41.2082H166.408V28.8328ZM178.386 38.9261C179.332 38.9261 180.058 38.5893 180.566 37.9157C181.073 37.242 181.326 36.2845 181.326 35.0432C181.326 33.8019 181.073 32.8482 180.566 32.1821C180.058 31.5085 179.332 31.1717 178.386 31.1717C177.44 31.1717 176.709 31.5085 176.194 32.1821C175.687 32.8482 175.434 33.8019 175.434 35.0432C175.434 36.2845 175.687 37.242 176.194 37.9157C176.709 38.5893 177.44 38.9261 178.386 38.9261ZM184.721 35.0432C184.721 36.8598 184.199 38.4152 183.154 39.7095C182.11 40.9963 180.524 41.6396 178.397 41.6396C176.27 41.6396 174.684 40.9963 173.64 39.7095C172.595 38.4152 172.073 36.8598 172.073 35.0432C172.073 33.2569 172.595 31.7091 173.64 30.3996C174.684 29.0902 176.27 28.4355 178.397 28.4355C180.524 28.4355 182.11 29.0902 183.154 30.3996C184.199 31.7091 184.721 33.2569 184.721 35.0432ZM193.77 28.5376C193.83 28.5376 193.879 28.5414 193.917 28.549C193.963 28.549 194.057 28.5528 194.201 28.5603V31.8756C193.997 31.8529 193.815 31.8377 193.656 31.8302C193.497 31.8226 193.369 31.8188 193.27 31.8188C191.968 31.8188 191.094 32.2427 190.647 33.0904C190.398 33.5673 190.273 34.3015 190.273 35.293V41.2082H187.014V28.8328H190.102V30.99C190.602 30.165 191.037 29.6011 191.408 29.2983C192.014 28.7912 192.801 28.5376 193.77 28.5376Z" fill="black"/>
<path d="M72.1732 36.0423L72.4704 36.0011L72.4345 35.7423H72.1732V36.0423ZM72.7977 37.7567L72.5657 37.9469L72.5662 37.9475L72.7977 37.7567ZM77.7251 38.5174L77.825 38.8003L77.8259 38.8L77.7251 38.5174ZM78.4631 35.293L78.6221 35.0386L78.6192 35.0368L78.4631 35.293ZM76.181 34.5096L76.1154 34.8023L76.1169 34.8027L76.181 34.5096ZM74.4099 34.1122L74.3437 34.4048L74.3442 34.405L74.4099 34.1122ZM70.7995 32.8293L70.9704 32.5827L70.9689 32.5817L70.7995 32.8293ZM80.0526 25.3927L79.8717 25.632L79.8733 25.6332L80.0526 25.3927ZM82.0168 29.4573V29.7573H82.3272L82.3166 29.4471L82.0168 29.4573ZM78.6561 29.4573L78.3567 29.4753L78.3736 29.7573H78.6561V29.4573ZM77.3391 27.3115L77.4772 27.0451L77.4762 27.0446L77.3391 27.3115ZM73.1383 30.2974L73.2884 30.0376L73.2843 30.0354L73.1383 30.2974ZM75.3182 30.99L75.3882 30.6983L75.3877 30.6982L75.3182 30.99ZM78.202 31.6826L78.1319 31.9743L78.1321 31.9743L78.202 31.6826ZM81.0631 32.8974L80.8774 33.133L80.8774 33.133L81.0631 32.8974ZM80.8019 40.1296L80.998 40.3567L80.9981 40.3566L80.8019 40.1296ZM70.7086 40.1523L70.5212 40.3866L70.5221 40.3873L70.7086 40.1523ZM68.8353 36.0423V35.7423H68.5353V36.0423H68.8353ZM71.8761 36.0835C71.9856 36.8739 72.2056 37.5078 72.5657 37.9469L73.0297 37.5665C72.7691 37.2487 72.5728 36.7397 72.4704 36.0011L71.8761 36.0835ZM72.5662 37.9475C73.216 38.736 74.2975 39.0899 75.7156 39.0899V38.4899C74.3785 38.4899 73.5147 38.155 73.0292 37.5659L72.5662 37.9475ZM75.7156 39.0899C76.559 39.0899 77.2662 38.9975 77.825 38.8003L77.6253 38.2345C77.1546 38.4006 76.5222 38.4899 75.7156 38.4899V39.0899ZM77.8259 38.8C78.354 38.6116 78.775 38.3334 79.0631 37.9516C79.3528 37.5676 79.4897 37.1029 79.4897 36.5759H78.8897C78.8897 36.9951 78.7826 37.3271 78.5841 37.5902C78.3839 37.8556 78.0726 38.075 77.6244 38.2348L77.8259 38.8ZM79.4897 36.5759C79.4897 35.9158 79.1906 35.3939 78.6221 35.0386L78.3041 35.5474C78.7044 35.7976 78.8897 36.131 78.8897 36.5759H79.4897ZM78.6192 35.0368C78.0915 34.7152 77.2915 34.4457 76.2452 34.2165L76.1169 34.8027C77.1445 35.0277 77.8659 35.2804 78.307 35.5492L78.6192 35.0368ZM76.2467 34.2169L74.4756 33.8195L74.3442 34.405L76.1154 34.8023L76.2467 34.2169ZM74.4761 33.8196C72.7384 33.4268 71.585 33.0088 70.9704 32.5827L70.6286 33.0758C71.3461 33.5732 72.5996 34.0105 74.3437 34.4048L74.4761 33.8196ZM70.9689 32.5817C69.94 31.8774 69.4078 30.7738 69.4078 29.2075H68.8078C68.8078 30.9262 69.4033 32.2371 70.63 33.0768L70.9689 32.5817ZM69.4078 29.2075C69.4078 27.7917 69.9183 26.6277 70.9446 25.6941L70.5408 25.2503C69.3872 26.2998 68.8078 27.626 68.8078 29.2075H69.4078ZM70.9446 25.6941C71.9594 24.7709 73.4761 24.2849 75.5452 24.2849V23.6849C73.3909 23.6849 71.7059 24.1904 70.5408 25.2503L70.9446 25.6941ZM75.5452 24.2849C77.2526 24.2849 78.6893 24.738 79.8717 25.632L80.2335 25.1534C78.9333 24.1703 77.365 23.6849 75.5452 23.6849V24.2849ZM79.8733 25.6332C81.0381 26.5015 81.659 27.7652 81.7169 29.4675L82.3166 29.4471C82.2534 27.5919 81.5649 26.1458 80.2319 25.1522L79.8733 25.6332ZM82.0168 29.1573H78.6561V29.7573H82.0168V29.1573ZM78.9556 29.4393C78.8894 28.3393 78.3987 27.5229 77.4772 27.0451L77.201 27.5778C77.9144 27.9477 78.3017 28.5619 78.3567 29.4753L78.9556 29.4393ZM77.4762 27.0446C76.8774 26.7369 76.1497 26.5914 75.3068 26.5914V27.1914C76.0838 27.1914 76.7109 27.3259 77.202 27.5783L77.4762 27.0446ZM75.3068 26.5914C74.3687 26.5914 73.5845 26.7802 72.9816 27.1878L73.3177 27.6849C73.7896 27.3658 74.4435 27.1914 75.3068 27.1914V26.5914ZM72.9816 27.1878C72.3614 27.6072 72.0436 28.2076 72.0436 28.9577H72.6435C72.6435 28.406 72.8631 27.9922 73.3177 27.6849L72.9816 27.1878ZM72.0436 28.9577C72.0436 29.3023 72.1203 29.6179 72.2842 29.8942C72.448 30.1702 72.6889 30.3905 72.9923 30.5595L73.2843 30.0354C73.0578 29.9092 72.9014 29.7586 72.8003 29.5881C72.6992 29.4177 72.6435 29.2111 72.6435 28.9577H72.0436ZM72.9882 30.5572C73.3728 30.7794 74.1426 31.0185 75.2487 31.2818L75.3877 30.6982C74.2685 30.4317 73.585 30.209 73.2884 30.0377L72.9882 30.5572ZM75.2481 31.2817L78.1319 31.9743L78.272 31.3909L75.3882 30.6983L75.2481 31.2817ZM78.1321 31.9743C79.376 32.2723 80.2823 32.6639 80.8774 33.133L81.2488 32.6618C80.5571 32.1166 79.556 31.6984 78.2719 31.3908L78.1321 31.9743ZM80.8774 33.133C81.7914 33.8532 82.2617 34.8979 82.2617 36.3148H82.8617C82.8617 34.7496 82.3329 33.516 81.2487 32.6618L80.8774 33.133ZM82.2617 36.3148C82.2617 37.7552 81.7141 38.9445 80.6057 39.9027L80.9981 40.3566C82.2362 39.2863 82.8617 37.9323 82.8617 36.3148H82.2617ZM80.6059 39.9026C79.5125 40.8468 77.942 41.3396 75.8518 41.3396V41.9396C78.0306 41.9396 79.7601 41.4258 80.998 40.3567L80.6059 39.9026ZM75.8518 41.3396C73.715 41.3396 72.0745 40.8537 70.8952 39.9174L70.5221 40.3873C71.8406 41.434 73.6288 41.9396 75.8518 41.9396V41.3396ZM70.896 39.9181C69.7252 38.9814 69.1353 37.7013 69.1353 36.0423H68.5353C68.5353 37.8651 69.1943 39.325 70.5212 40.3866L70.896 39.9181ZM68.8353 36.3423H72.1732V35.7423H68.8353V36.3423ZM83.6176 31.2511H83.3176V31.5511H83.6176V31.2511ZM83.6176 28.9464V28.6464H83.3176V28.9464H83.6176ZM85.3434 28.9464V29.2464H85.6434V28.9464H85.3434ZM85.3434 25.4949V25.1949H85.0434V25.4949H85.3434ZM88.5451 25.4949H88.8451V25.1949H88.5451V25.4949ZM88.5451 28.9464H88.2451V29.2464H88.5451V28.9464ZM90.5546 28.9464H90.8546V28.6464H90.5546V28.9464ZM90.5546 31.2511V31.5511H90.8546V31.2511H90.5546ZM88.5451 31.2511V30.9511H88.2451V31.2511H88.5451ZM88.7381 38.7445L88.5258 38.9567L88.5325 38.9629L88.7381 38.7445ZM90.2254 38.9261V39.2261H90.2354L90.2453 39.2255L90.2254 38.9261ZM90.5546 38.9034H90.8546V38.5812L90.5333 38.6042L90.5546 38.9034ZM90.5546 41.3217L90.5657 41.6215L90.8546 41.6108V41.3217H90.5546ZM89.0219 41.3785L89.0323 41.6783L89.033 41.6783L89.0219 41.3785ZM85.8883 40.5837L86.1046 40.3759L86.1026 40.3738L85.8883 40.5837ZM85.3434 31.2511H85.6434V30.9511H85.3434V31.2511ZM83.9176 31.2511V28.9464H83.3176V31.2511H83.9176ZM83.6176 29.2464H85.3434V28.6464H83.6176V29.2464ZM85.6434 28.9464V25.4949H85.0434V28.9464H85.6434ZM85.3434 25.7949H88.5451V25.1949H85.3434V25.7949ZM88.2451 25.4949V28.9464H88.8451V25.4949H88.2451ZM88.5451 29.2464H90.5546V28.6464H88.5451V29.2464ZM90.2546 28.9464V31.2511H90.8546V28.9464H90.2546ZM90.5546 30.9511H88.5451V31.5511H90.5546V30.9511ZM88.2451 31.2511V37.7908H88.8451V31.2511H88.2451ZM88.2451 37.7908C88.2451 38.0545 88.2616 38.2828 88.2993 38.4691C88.3352 38.6464 88.3984 38.8291 88.5259 38.9566L88.9502 38.5323C88.9521 38.5343 88.9429 38.5256 88.929 38.4935C88.9154 38.4619 88.9006 38.4154 88.8873 38.35C88.8607 38.2184 88.8451 38.0342 88.8451 37.7908H88.2451ZM88.5325 38.9629C88.6078 39.0338 88.7007 39.0777 88.7857 39.1073C88.8739 39.138 88.9749 39.1604 89.0841 39.1772C89.3026 39.2108 89.5828 39.2261 89.9188 39.2261V38.6261C89.5964 38.6261 89.3505 38.6111 89.1754 38.5842C89.0879 38.5707 89.0252 38.5553 88.9828 38.5406C88.9372 38.5248 88.9327 38.5157 88.9437 38.526L88.5325 38.9629ZM89.9188 39.2261C89.919 39.2261 89.9192 39.2261 89.9194 39.2261C89.9196 39.2261 89.9198 39.2261 89.92 39.2261C89.9202 39.2261 89.9204 39.2261 89.9206 39.2261C89.9208 39.2261 89.9209 39.2261 89.9211 39.2261C89.9213 39.2261 89.9215 39.2261 89.9217 39.2261C89.9219 39.2261 89.9221 39.2261 89.9223 39.2261C89.9225 39.2261 89.9227 39.2261 89.9229 39.2261C89.9231 39.2261 89.9233 39.2261 89.9234 39.2261C89.9236 39.2261 89.9238 39.2261 89.924 39.2261C89.9242 39.2261 89.9244 39.2261 89.9246 39.2261C89.9248 39.2261 89.925 39.2261 89.9252 39.2261C89.9254 39.2261 89.9256 39.2261 89.9258 39.2261C89.926 39.2261 89.9261 39.2261 89.9263 39.2261C89.9265 39.2261 89.9267 39.2261 89.9269 39.2261C89.9271 39.2261 89.9273 39.2261 89.9275 39.2261C89.9277 39.2261 89.9279 39.2261 89.9281 39.2261C89.9283 39.2261 89.9285 39.2261 89.9286 39.2261C89.9288 39.2261 89.929 39.2261 89.9292 39.2261C89.9294 39.2261 89.9296 39.2261 89.9298 39.2261C89.93 39.2261 89.9302 39.2261 89.9304 39.2261C89.9306 39.2261 89.9308 39.2261 89.931 39.2261C89.9312 39.2261 89.9313 39.2261 89.9315 39.2261C89.9317 39.2261 89.9319 39.2261 89.9321 39.2261C89.9323 39.2261 89.9325 39.2261 89.9327 39.2261C89.9329 39.2261 89.9331 39.2261 89.9333 39.2261C89.9335 39.2261 89.9337 39.2261 89.9339 39.2261C89.934 39.2261 89.9342 39.2261 89.9344 39.2261C89.9346 39.2261 89.9348 39.2261 89.935 39.2261C89.9352 39.2261 89.9354 39.2261 89.9356 39.2261C89.9358 39.2261 89.936 39.2261 89.9362 39.2261C89.9364 39.2261 89.9366 39.2261 89.9367 39.2261C89.9369 39.2261 89.9371 39.2261 89.9373 39.2261C89.9375 39.2261 89.9377 39.2261 89.9379 39.2261C89.9381 39.2261 89.9383 39.2261 89.9385 39.2261C89.9387 39.2261 89.9389 39.2261 89.9391 39.2261C89.9393 39.2261 89.9395 39.2261 89.9396 39.2261C89.9398 39.2261 89.94 39.2261 89.9402 39.2261C89.9404 39.2261 89.9406 39.2261 89.9408 39.2261C89.941 39.2261 89.9412 39.2261 89.9414 39.2261C89.9416 39.2261 89.9418 39.2261 89.942 39.2261C89.9422 39.2261 89.9424 39.2261 89.9425 39.2261C89.9427 39.2261 89.9429 39.2261 89.9431 39.2261C89.9433 39.2261 89.9435 39.2261 89.9437 39.2261C89.9439 39.2261 89.9441 39.2261 89.9443 39.2261C89.9445 39.2261 89.9447 39.2261 89.9449 39.2261C89.9451 39.2261 89.9453 39.2261 89.9454 39.2261C89.9456 39.2261 89.9458 39.2261 89.946 39.2261C89.9462 39.2261 89.9464 39.2261 89.9466 39.2261C89.9468 39.2261 89.947 39.2261 89.9472 39.2261C89.9474 39.2261 89.9476 39.2261 89.9478 39.2261C89.948 39.2261 89.9482 39.2261 89.9484 39.2261C89.9485 39.2261 89.9487 39.2261 89.9489 39.2261C89.9491 39.2261 89.9493 39.2261 89.9495 39.2261C89.9497 39.2261 89.9499 39.2261 89.9501 39.2261C89.9503 39.2261 89.9505 39.2261 89.9507 39.2261C89.9509 39.2261 89.9511 39.2261 89.9513 39.2261C89.9515 39.2261 89.9516 39.2261 89.9518 39.2261C89.952 39.2261 89.9522 39.2261 89.9524 39.2261C89.9526 39.2261 89.9528 39.2261 89.953 39.2261C89.9532 39.2261 89.9534 39.2261 89.9536 39.2261C89.9538 39.2261 89.954 39.2261 89.9542 39.2261C89.9544 39.2261 89.9546 39.2261 89.9547 39.2261C89.9549 39.2261 89.9551 39.2261 89.9553 39.2261C89.9555 39.2261 89.9557 39.2261 89.9559 39.2261C89.9561 39.2261 89.9563 39.2261 89.9565 39.2261C89.9567 39.2261 89.9569 39.2261 89.9571 39.2261C89.9573 39.2261 89.9575 39.2261 89.9577 39.2261C89.9579 39.2261 89.958 39.2261 89.9582 39.2261C89.9584 39.2261 89.9586 39.2261 89.9588 39.2261C89.959 39.2261 89.9592 39.2261 89.9594 39.2261C89.9596 39.2261 89.9598 39.2261 89.96 39.2261C89.9602 39.2261 89.9604 39.2261 89.9606 39.2261C89.9608 39.2261 89.961 39.2261 89.9612 39.2261C89.9613 39.2261 89.9615 39.2261 89.9617 39.2261C89.9619 39.2261 89.9621 39.2261 89.9623 39.2261C89.9625 39.2261 89.9627 39.2261 89.9629 39.2261C89.9631 39.2261 89.9633 39.2261 89.9635 39.2261C89.9637 39.2261 89.9639 39.2261 89.9641 39.2261C89.9643 39.2261 89.9645 39.2261 89.9647 39.2261C89.9648 39.2261 89.965 39.2261 89.9652 39.2261C89.9654 39.2261 89.9656 39.2261 89.9658 39.2261C89.966 39.2261 89.9662 39.2261 89.9664 39.2261C89.9666 39.2261 89.9668 39.2261 89.967 39.2261C89.9672 39.2261 89.9674 39.2261 89.9676 39.2261C89.9678 39.2261 89.968 39.2261 89.9682 39.2261C89.9683 39.2261 89.9685 39.2261 89.9687 39.2261C89.9689 39.2261 89.9691 39.2261 89.9693 39.2261C89.9695 39.2261 89.9697 39.2261 89.9699 39.2261C89.9701 39.2261 89.9703 39.2261 89.9705 39.2261C89.9707 39.2261 89.9709 39.2261 89.9711 39.2261C89.9713 39.2261 89.9715 39.2261 89.9717 39.2261C89.9719 39.2261 89.972 39.2261 89.9722 39.2261C89.9724 39.2261 89.9726 39.2261 89.9728 39.2261C89.973 39.2261 89.9732 39.2261 89.9734 39.2261C89.9736 39.2261 89.9738 39.2261 89.974 39.2261C89.9742 39.2261 89.9744 39.2261 89.9746 39.2261C89.9748 39.2261 89.975 39.2261 89.9752 39.2261C89.9754 39.2261 89.9756 39.2261 89.9758 39.2261C89.9759 39.2261 89.9761 39.2261 89.9763 39.2261C89.9765 39.2261 89.9767 39.2261 89.9769 39.2261C89.9771 39.2261 89.9773 39.2261 89.9775 39.2261C89.9777 39.2261 89.9779 39.2261 89.9781 39.2261C89.9783 39.2261 89.9785 39.2261 89.9787 39.2261C89.9789 39.2261 89.9791 39.2261 89.9793 39.2261C89.9795 39.2261 89.9797 39.2261 89.9798 39.2261C89.98 39.2261 89.9802 39.2261 89.9804 39.2261C89.9806 39.2261 89.9808 39.2261 89.981 39.2261C89.9812 39.2261 89.9814 39.2261 89.9816 39.2261C89.9818 39.2261 89.982 39.2261 89.9822 39.2261C89.9824 39.2261 89.9826 39.2261 89.9828 39.2261C89.983 39.2261 89.9832 39.2261 89.9834 39.2261C89.9836 39.2261 89.9838 39.2261 89.9839 39.2261C89.9841 39.2261 89.9843 39.2261 89.9845 39.2261C89.9847 39.2261 89.9849 39.2261 89.9851 39.2261C89.9853 39.2261 89.9855 39.2261 89.9857 39.2261C89.9859 39.2261 89.9861 39.2261 89.9863 39.2261C89.9865 39.2261 89.9867 39.2261 89.9869 39.2261C89.9871 39.2261 89.9873 39.2261 89.9875 39.2261C89.9877 39.2261 89.9879 39.2261 89.9881 39.2261C89.9883 39.2261 89.9884 39.2261 89.9886 39.2261C89.9888 39.2261 89.989 39.2261 89.9892 39.2261C89.9894 39.2261 89.9896 39.2261 89.9898 39.2261C89.99 39.2261 89.9902 39.2261 89.9904 39.2261C89.9906 39.2261 89.9908 39.2261 89.991 39.2261C89.9912 39.2261 89.9914 39.2261 89.9916 39.2261C89.9918 39.2261 89.992 39.2261 89.9922 39.2261C89.9924 39.2261 89.9926 39.2261 89.9928 39.2261C89.9929 39.2261 89.9931 39.2261 89.9933 39.2261C89.9935 39.2261 89.9937 39.2261 89.9939 39.2261C89.9941 39.2261 89.9943 39.2261 89.9945 39.2261C89.9947 39.2261 89.9949 39.2261 89.9951 39.2261C89.9953 39.2261 89.9955 39.2261 89.9957 39.2261C89.9959 39.2261 89.9961 39.2261 89.9963 39.2261C89.9965 39.2261 89.9967 39.2261 89.9969 39.2261C89.9971 39.2261 89.9973 39.2261 89.9975 39.2261C89.9977 39.2261 89.9978 39.2261 89.998 39.2261C89.9982 39.2261 89.9984 39.2261 89.9986 39.2261C89.9988 39.2261 89.999 39.2261 89.9992 39.2261C89.9994 39.2261 89.9996 39.2261 89.9998 39.2261C90 39.2261 90.0002 39.2261 90.0004 39.2261C90.0006 39.2261 90.0008 39.2261 90.001 39.2261C90.0012 39.2261 90.0014 39.2261 90.0016 39.2261C90.0018 39.2261 90.002 39.2261 90.0022 39.2261C90.0024 39.2261 90.0026 39.2261 90.0028 39.2261C90.003 39.2261 90.0031 39.2261 90.0033 39.2261C90.0035 39.2261 90.0037 39.2261 90.0039 39.2261C90.0041 39.2261 90.0043 39.2261 90.0045 39.2261C90.0047 39.2261 90.0049 39.2261 90.0051 39.2261C90.0053 39.2261 90.0055 39.2261 90.0057 39.2261C90.0059 39.2261 90.0061 39.2261 90.0063 39.2261C90.0065 39.2261 90.0067 39.2261 90.0069 39.2261C90.0071 39.2261 90.0073 39.2261 90.0075 39.2261C90.0077 39.2261 90.0079 39.2261 90.0081 39.2261C90.0083 39.2261 90.0085 39.2261 90.0086 39.2261C90.0088 39.2261 90.009 39.2261 90.0092 39.2261C90.0094 39.2261 90.0096 39.2261 90.0098 39.2261C90.01 39.2261 90.0102 39.2261 90.0104 39.2261C90.0106 39.2261 90.0108 39.2261 90.011 39.2261C90.0112 39.2261 90.0114 39.2261 90.0116 39.2261C90.0118 39.2261 90.012 39.2261 90.0122 39.2261C90.0124 39.2261 90.0126 39.2261 90.0128 39.2261C90.013 39.2261 90.0132 39.2261 90.0134 39.2261C90.0136 39.2261 90.0138 39.2261 90.014 39.2261C90.0142 39.2261 90.0144 39.2261 90.0146 39.2261C90.0147 39.2261 90.0149 39.2261 90.0151 39.2261C90.0153 39.2261 90.0155 39.2261 90.0157 39.2261C90.0159 39.2261 90.0161 39.2261 90.0163 39.2261C90.0165 39.2261 90.0167 39.2261 90.0169 39.2261C90.0171 39.2261 90.0173 39.2261 90.0175 39.2261C90.0177 39.2261 90.0179 39.2261 90.0181 39.2261C90.0183 39.2261 90.0185 39.2261 90.0187 39.2261C90.0189 39.2261 90.0191 39.2261 90.0193 39.2261C90.0195 39.2261 90.0197 39.2261 90.0199 39.2261C90.0201 39.2261 90.0203 39.2261 90.0205 39.2261C90.0207 39.2261 90.0209 39.2261 90.0211 39.2261C90.0213 39.2261 90.0215 39.2261 90.0216 39.2261C90.0218 39.2261 90.022 39.2261 90.0222 39.2261C90.0224 39.2261 90.0226 39.2261 90.0228 39.2261C90.023 39.2261 90.0232 39.2261 90.0234 39.2261C90.0236 39.2261 90.0238 39.2261 90.024 39.2261C90.0242 39.2261 90.0244 39.2261 90.0246 39.2261C90.0248 39.2261 90.025 39.2261 90.0252 39.2261C90.0254 39.2261 90.0256 39.2261 90.0258 39.2261C90.026 39.2261 90.0262 39.2261 90.0264 39.2261C90.0266 39.2261 90.0268 39.2261 90.027 39.2261C90.0272 39.2261 90.0274 39.2261 90.0276 39.2261C90.0278 39.2261 90.028 39.2261 90.0282 39.2261C90.0284 39.2261 90.0286 39.2261 90.0288 39.2261C90.029 39.2261 90.0292 39.2261 90.0293 39.2261C90.0295 39.2261 90.0297 39.2261 90.0299 39.2261C90.0301 39.2261 90.0303 39.2261 90.0305 39.2261C90.0307 39.2261 90.0309 39.2261 90.0311 39.2261C90.0313 39.2261 90.0315 39.2261 90.0317 39.2261C90.0319 39.2261 90.0321 39.2261 90.0323 39.2261C90.0325 39.2261 90.0327 39.2261 90.0329 39.2261C90.0331 39.2261 90.0333 39.2261 90.0335 39.2261C90.0337 39.2261 90.0339 39.2261 90.0341 39.2261C90.0343 39.2261 90.0345 39.2261 90.0347 39.2261C90.0349 39.2261 90.0351 39.2261 90.0353 39.2261C90.0355 39.2261 90.0357 39.2261 90.0359 39.2261C90.0361 39.2261 90.0363 39.2261 90.0365 39.2261C90.0367 39.2261 90.0369 39.2261 90.0371 39.2261C90.0373 39.2261 90.0375 39.2261 90.0377 39.2261C90.0379 39.2261 90.0381 39.2261 90.0383 39.2261C90.0385 39.2261 90.0386 39.2261 90.0388 39.2261C90.039 39.2261 90.0392 39.2261 90.0394 39.2261C90.0396 39.2261 90.0398 39.2261 90.04 39.2261C90.0402 39.2261 90.0404 39.2261 90.0406 39.2261C90.0408 39.2261 90.041 39.2261 90.0412 39.2261C90.0414 39.2261 90.0416 39.2261 90.0418 39.2261C90.042 39.2261 90.0422 39.2261 90.0424 39.2261C90.0426 39.2261 90.0428 39.2261 90.043 39.2261C90.0432 39.2261 90.0434 39.2261 90.0436 39.2261C90.0438 39.2261 90.044 39.2261 90.0442 39.2261C90.0444 39.2261 90.0446 39.2261 90.0448 39.2261C90.045 39.2261 90.0452 39.2261 90.0454 39.2261C90.0456 39.2261 90.0458 39.2261 90.046 39.2261C90.0462 39.2261 90.0464 39.2261 90.0466 39.2261C90.0468 39.2261 90.047 39.2261 90.0472 39.2261C90.0474 39.2261 90.0476 39.2261 90.0478 39.2261C90.048 39.2261 90.0482 39.2261 90.0484 39.2261C90.0486 39.2261 90.0488 39.2261 90.049 39.2261C90.0492 39.2261 90.0494 39.2261 90.0496 39.2261C90.0498 39.2261 90.05 39.2261 90.0502 39.2261C90.0504 39.2261 90.0506 39.2261 90.0507 39.2261C90.0509 39.2261 90.0511 39.2261 90.0513 39.2261C90.0515 39.2261 90.0517 39.2261 90.0519 39.2261C90.0521 39.2261 90.0523 39.2261 90.0525 39.2261C90.0527 39.2261 90.0529 39.2261 90.0531 39.2261C90.0533 39.2261 90.0535 39.2261 90.0537 39.2261C90.0539 39.2261 90.0541 39.2261 90.0543 39.2261C90.0545 39.2261 90.0547 39.2261 90.0549 39.2261C90.0551 39.2261 90.0553 39.2261 90.0555 39.2261C90.0557 39.2261 90.0559 39.2261 90.0561 39.2261C90.0563 39.2261 90.0565 39.2261 90.0567 39.2261C90.0569 39.2261 90.0571 39.2261 90.0573 39.2261C90.0575 39.2261 90.0577 39.2261 90.0579 39.2261C90.0581 39.2261 90.0583 39.2261 90.0585 39.2261C90.0587 39.2261 90.0589 39.2261 90.0591 39.2261C90.0593 39.2261 90.0595 39.2261 90.0597 39.2261C90.0599 39.2261 90.0601 39.2261 90.0603 39.2261C90.0605 39.2261 90.0607 39.2261 90.0609 39.2261C90.0611 39.2261 90.0613 39.2261 90.0615 39.2261C90.0617 39.2261 90.0619 39.2261 90.0621 39.2261C90.0623 39.2261 90.0625 39.2261 90.0627 39.2261C90.0629 39.2261 90.0631 39.2261 90.0633 39.2261C90.0635 39.2261 90.0637 39.2261 90.0639 39.2261C90.0641 39.2261 90.0643 39.2261 90.0645 39.2261C90.0647 39.2261 90.0649 39.2261 90.0651 39.2261C90.0653 39.2261 90.0655 39.2261 90.0657 39.2261C90.0659 39.2261 90.0661 39.2261 90.0663 39.2261C90.0665 39.2261 90.0667 39.2261 90.0669 39.2261C90.0671 39.2261 90.0673 39.2261 90.0675 39.2261C90.0677 39.2261 90.0679 39.2261 90.0681 39.2261C90.0683 39.2261 90.0685 39.2261 90.0687 39.2261C90.0689 39.2261 90.0691 39.2261 90.0693 39.2261C90.0695 39.2261 90.0697 39.2261 90.0699 39.2261C90.0701 39.2261 90.0703 39.2261 90.0705 39.2261C90.0707 39.2261 90.0709 39.2261 90.0711 39.2261C90.0713 39.2261 90.0715 39.2261 90.0717 39.2261C90.0719 39.2261 90.0721 39.2261 90.0723 39.2261C90.0725 39.2261 90.0727 39.2261 90.0729 39.2261C90.0731 39.2261 90.0733 39.2261 90.0735 39.2261C90.0737 39.2261 90.0739 39.2261 90.0741 39.2261C90.0743 39.2261 90.0745 39.2261 90.0747 39.2261C90.0749 39.2261 90.0751 39.2261 90.0753 39.2261C90.0755 39.2261 90.0757 39.2261 90.0759 39.2261C90.0761 39.2261 90.0763 39.2261 90.0765 39.2261C90.0767 39.2261 90.0769 39.2261 90.0771 39.2261C90.0773 39.2261 90.0775 39.2261 90.0777 39.2261C90.0779 39.2261 90.0781 39.2261 90.0783 39.2261C90.0785 39.2261 90.0787 39.2261 90.0789 39.2261C90.0791 39.2261 90.0793 39.2261 90.0795 39.2261C90.0797 39.2261 90.0799 39.2261 90.0801 39.2261C90.0803 39.2261 90.0805 39.2261 90.0807 39.2261C90.0809 39.2261 90.0811 39.2261 90.0813 39.2261C90.0815 39.2261 90.0817 39.2261 90.0819 39.2261C90.0821 39.2261 90.0823 39.2261 90.0825 39.2261C90.0827 39.2261 90.0829 39.2261 90.0831 39.2261C90.0833 39.2261 90.0835 39.2261 90.0837 39.2261C90.0839 39.2261 90.0841 39.2261 90.0843 39.2261C90.0845 39.2261 90.0847 39.2261 90.0849 39.2261C90.0851 39.2261 90.0853 39.2261 90.0855 39.2261C90.0857 39.2261 90.0859 39.2261 90.0861 39.2261C90.0863 39.2261 90.0865 39.2261 90.0867 39.2261C90.0869 39.2261 90.0871 39.2261 90.0873 39.2261C90.0875 39.2261 90.0877 39.2261 90.0879 39.2261C90.0881 39.2261 90.0883 39.2261 90.0885 39.2261C90.0887 39.2261 90.0889 39.2261 90.0891 39.2261C90.0893 39.2261 90.0895 39.2261 90.0897 39.2261C90.0899 39.2261 90.0901 39.2261 90.0903 39.2261C90.0905 39.2261 90.0907 39.2261 90.0909 39.2261C90.0911 39.2261 90.0913 39.2261 90.0915 39.2261C90.0917 39.2261 90.0919 39.2261 90.0921 39.2261C90.0923 39.2261 90.0925 39.2261 90.0927 39.2261C90.0929 39.2261 90.0931 39.2261 90.0933 39.2261C90.0935 39.2261 90.0937 39.2261 90.0939 39.2261C90.0941 39.2261 90.0943 39.2261 90.0945 39.2261C90.0947 39.2261 90.0949 39.2261 90.0951 39.2261C90.0953 39.2261 90.0955 39.2261 90.0957 39.2261C90.0959 39.2261 90.0961 39.2261 90.0963 39.2261C90.0965 39.2261 90.0967 39.2261 90.0969 39.2261C90.0971 39.2261 90.0973 39.2261 90.0975 39.2261C90.0977 39.2261 90.0979 39.2261 90.0981 39.2261C90.0983 39.2261 90.0985 39.2261 90.0987 39.2261C90.0989 39.2261 90.0991 39.2261 90.0993 39.2261C90.0995 39.2261 90.0997 39.2261 90.0999 39.2261C90.1001 39.2261 90.1003 39.2261 90.1005 39.2261C90.1007 39.2261 90.1009 39.2261 90.1011 39.2261C90.1013 39.2261 90.1015 39.2261 90.1017 39.2261C90.1019 39.2261 90.1021 39.2261 90.1023 39.2261C90.1025 39.2261 90.1027 39.2261 90.1029 39.2261C90.1031 39.2261 90.1033 39.2261 90.1035 39.2261C90.1037 39.2261 90.1039 39.2261 90.1041 39.2261C90.1043 39.2261 90.1045 39.2261 90.1047 39.2261C90.1049 39.2261 90.1051 39.2261 90.1053 39.2261C90.1055 39.2261 90.1057 39.2261 90.106 39.2261C90.1062 39.2261 90.1064 39.2261 90.1066 39.2261C90.1068 39.2261 90.107 39.2261 90.1072 39.2261C90.1074 39.2261 90.1076 39.2261 90.1078 39.2261C90.108 39.2261 90.1082 39.2261 90.1084 39.2261C90.1086 39.2261 90.1088 39.2261 90.109 39.2261C90.1092 39.2261 90.1094 39.2261 90.1096 39.2261C90.1098 39.2261 90.11 39.2261 90.1102 39.2261C90.1104 39.2261 90.1106 39.2261 90.1108 39.2261C90.111 39.2261 90.1112 39.2261 90.1114 39.2261C90.1116 39.2261 90.1118 39.2261 90.112 39.2261C90.1122 39.2261 90.1124 39.2261 90.1126 39.2261C90.1128 39.2261 90.113 39.2261 90.1132 39.2261C90.1134 39.2261 90.1136 39.2261 90.1138 39.2261C90.114 39.2261 90.1142 39.2261 90.1144 39.2261C90.1146 39.2261 90.1148 39.2261 90.115 39.2261C90.1152 39.2261 90.1154 39.2261 90.1156 39.2261C90.1158 39.2261 90.116 39.2261 90.1162 39.2261C90.1164 39.2261 90.1166 39.2261 90.1168 39.2261C90.117 39.2261 90.1172 39.2261 90.1174 39.2261C90.1176 39.2261 90.1178 39.2261 90.118 39.2261C90.1182 39.2261 90.1185 39.2261 90.1187 39.2261C90.1189 39.2261 90.1191 39.2261 90.1193 39.2261C90.1195 39.2261 90.1197 39.2261 90.1199 39.2261C90.1201 39.2261 90.1203 39.2261 90.1205 39.2261C90.1207 39.2261 90.1209 39.2261 90.1211 39.2261C90.1213 39.2261 90.1215 39.2261 90.1217 39.2261C90.1219 39.2261 90.1221 39.2261 90.1223 39.2261C90.1225 39.2261 90.1227 39.2261 90.1229 39.2261C90.1231 39.2261 90.1233 39.2261 90.1235 39.2261C90.1237 39.2261 90.1239 39.2261 90.1241 39.2261C90.1243 39.2261 90.1245 39.2261 90.1247 39.2261C90.1249 39.2261 90.1251 39.2261 90.1253 39.2261C90.1255 39.2261 90.1257 39.2261 90.1259 39.2261C90.1261 39.2261 90.1263 39.2261 90.1265 39.2261C90.1267 39.2261 90.1269 39.2261 90.1271 39.2261C90.1273 39.2261 90.1275 39.2261 90.1278 39.2261C90.128 39.2261 90.1282 39.2261 90.1284 39.2261C90.1286 39.2261 90.1288 39.2261 90.129 39.2261C90.1292 39.2261 90.1294 39.2261 90.1296 39.2261C90.1298 39.2261 90.13 39.2261 90.1302 39.2261C90.1304 39.2261 90.1306 39.2261 90.1308 39.2261C90.131 39.2261 90.1312 39.2261 90.1314 39.2261C90.1316 39.2261 90.1318 39.2261 90.132 39.2261C90.1322 39.2261 90.1324 39.2261 90.1326 39.2261C90.1328 39.2261 90.133 39.2261 90.1332 39.2261C90.1334 39.2261 90.1336 39.2261 90.1338 39.2261C90.134 39.2261 90.1342 39.2261 90.1344 39.2261C90.1346 39.2261 90.1348 39.2261 90.135 39.2261C90.1352 39.2261 90.1354 39.2261 90.1357 39.2261C90.1359 39.2261 90.1361 39.2261 90.1363 39.2261C90.1365 39.2261 90.1367 39.2261 90.1369 39.2261C90.1371 39.2261 90.1373 39.2261 90.1375 39.2261C90.1377 39.2261 90.1379 39.2261 90.1381 39.2261C90.1383 39.2261 90.1385 39.2261 90.1387 39.2261C90.1389 39.2261 90.1391 39.2261 90.1393 39.2261C90.1395 39.2261 90.1397 39.2261 90.1399 39.2261C90.1401 39.2261 90.1403 39.2261 90.1405 39.2261C90.1407 39.2261 90.1409 39.2261 90.1411 39.2261C90.1413 39.2261 90.1415 39.2261 90.1417 39.2261C90.1419 39.2261 90.1421 39.2261 90.1423 39.2261C90.1426 39.2261 90.1428 39.2261 90.143 39.2261C90.1432 39.2261 90.1434 39.2261 90.1436 39.2261C90.1438 39.2261 90.144 39.2261 90.1442 39.2261C90.1444 39.2261 90.1446 39.2261 90.1448 39.2261C90.145 39.2261 90.1452 39.2261 90.1454 39.2261C90.1456 39.2261 90.1458 39.2261 90.146 39.2261C90.1462 39.2261 90.1464 39.2261 90.1466 39.2261C90.1468 39.2261 90.147 39.2261 90.1472 39.2261C90.1474 39.2261 90.1476 39.2261 90.1478 39.2261C90.148 39.2261 90.1482 39.2261 90.1484 39.2261C90.1486 39.2261 90.1489 39.2261 90.1491 39.2261C90.1493 39.2261 90.1495 39.2261 90.1497 39.2261C90.1499 39.2261 90.1501 39.2261 90.1503 39.2261C90.1505 39.2261 90.1507 39.2261 90.1509 39.2261C90.1511 39.2261 90.1513 39.2261 90.1515 39.2261C90.1517 39.2261 90.1519 39.2261 90.1521 39.2261C90.1523 39.2261 90.1525 39.2261 90.1527 39.2261C90.1529 39.2261 90.1531 39.2261 90.1533 39.2261C90.1535 39.2261 90.1537 39.2261 90.1539 39.2261C90.1541 39.2261 90.1543 39.2261 90.1545 39.2261C90.1548 39.2261 90.155 39.2261 90.1552 39.2261C90.1554 39.2261 90.1556 39.2261 90.1558 39.2261C90.156 39.2261 90.1562 39.2261 90.1564 39.2261C90.1566 39.2261 90.1568 39.2261 90.157 39.2261C90.1572 39.2261 90.1574 39.2261 90.1576 39.2261C90.1578 39.2261 90.158 39.2261 90.1582 39.2261C90.1584 39.2261 90.1586 39.2261 90.1588 39.2261C90.159 39.2261 90.1592 39.2261 90.1594 39.2261C90.1596 39.2261 90.1598 39.2261 90.1601 39.2261C90.1603 39.2261 90.1605 39.2261 90.1607 39.2261C90.1609 39.2261 90.1611 39.2261 90.1613 39.2261C90.1615 39.2261 90.1617 39.2261 90.1619 39.2261C90.1621 39.2261 90.1623 39.2261 90.1625 39.2261C90.1627 39.2261 90.1629 39.2261 90.1631 39.2261C90.1633 39.2261 90.1635 39.2261 90.1637 39.2261C90.1639 39.2261 90.1641 39.2261 90.1643 39.2261C90.1645 39.2261 90.1647 39.2261 90.1649 39.2261C90.1652 39.2261 90.1654 39.2261 90.1656 39.2261C90.1658 39.2261 90.166 39.2261 90.1662 39.2261C90.1664 39.2261 90.1666 39.2261 90.1668 39.2261C90.167 39.2261 90.1672 39.2261 90.1674 39.2261C90.1676 39.2261 90.1678 39.2261 90.168 39.2261C90.1682 39.2261 90.1684 39.2261 90.1686 39.2261C90.1688 39.2261 90.169 39.2261 90.1692 39.2261C90.1694 39.2261 90.1696 39.2261 90.1698 39.2261C90.1701 39.2261 90.1703 39.2261 90.1705 39.2261C90.1707 39.2261 90.1709 39.2261 90.1711 39.2261C90.1713 39.2261 90.1715 39.2261 90.1717 39.2261C90.1719 39.2261 90.1721 39.2261 90.1723 39.2261C90.1725 39.2261 90.1727 39.2261 90.1729 39.2261C90.1731 39.2261 90.1733 39.2261 90.1735 39.2261C90.1737 39.2261 90.1739 39.2261 90.1741 39.2261C90.1743 39.2261 90.1746 39.2261 90.1748 39.2261C90.175 39.2261 90.1752 39.2261 90.1754 39.2261C90.1756 39.2261 90.1758 39.2261 90.176 39.2261C90.1762 39.2261 90.1764 39.2261 90.1766 39.2261C90.1768 39.2261 90.177 39.2261 90.1772 39.2261C90.1774 39.2261 90.1776 39.2261 90.1778 39.2261C90.178 39.2261 90.1782 39.2261 90.1784 39.2261C90.1786 39.2261 90.1789 39.2261 90.1791 39.2261C90.1793 39.2261 90.1795 39.2261 90.1797 39.2261C90.1799 39.2261 90.1801 39.2261 90.1803 39.2261C90.1805 39.2261 90.1807 39.2261 90.1809 39.2261C90.1811 39.2261 90.1813 39.2261 90.1815 39.2261C90.1817 39.2261 90.1819 39.2261 90.1821 39.2261C90.1823 39.2261 90.1825 39.2261 90.1827 39.2261C90.1829 39.2261 90.1832 39.2261 90.1834 39.2261C90.1836 39.2261 90.1838 39.2261 90.184 39.2261C90.1842 39.2261 90.1844 39.2261 90.1846 39.2261C90.1848 39.2261 90.185 39.2261 90.1852 39.2261C90.1854 39.2261 90.1856 39.2261 90.1858 39.2261C90.186 39.2261 90.1862 39.2261 90.1864 39.2261C90.1866 39.2261 90.1868 39.2261 90.187 39.2261C90.1873 39.2261 90.1875 39.2261 90.1877 39.2261C90.1879 39.2261 90.1881 39.2261 90.1883 39.2261C90.1885 39.2261 90.1887 39.2261 90.1889 39.2261C90.1891 39.2261 90.1893 39.2261 90.1895 39.2261C90.1897 39.2261 90.1899 39.2261 90.1901 39.2261C90.1903 39.2261 90.1905 39.2261 90.1907 39.2261C90.191 39.2261 90.1912 39.2261 90.1914 39.2261C90.1916 39.2261 90.1918 39.2261 90.192 39.2261C90.1922 39.2261 90.1924 39.2261 90.1926 39.2261C90.1928 39.2261 90.193 39.2261 90.1932 39.2261C90.1934 39.2261 90.1936 39.2261 90.1938 39.2261C90.194 39.2261 90.1942 39.2261 90.1944 39.2261C90.1946 39.2261 90.1949 39.2261 90.1951 39.2261C90.1953 39.2261 90.1955 39.2261 90.1957 39.2261C90.1959 39.2261 90.1961 39.2261 90.1963 39.2261C90.1965 39.2261 90.1967 39.2261 90.1969 39.2261C90.1971 39.2261 90.1973 39.2261 90.1975 39.2261C90.1977 39.2261 90.1979 39.2261 90.1981 39.2261C90.1983 39.2261 90.1986 39.2261 90.1988 39.2261C90.199 39.2261 90.1992 39.2261 90.1994 39.2261C90.1996 39.2261 90.1998 39.2261 90.2 39.2261C90.2002 39.2261 90.2004 39.2261 90.2006 39.2261C90.2008 39.2261 90.201 39.2261 90.2012 39.2261C90.2014 39.2261 90.2016 39.2261 90.2018 39.2261C90.2021 39.2261 90.2023 39.2261 90.2025 39.2261C90.2027 39.2261 90.2029 39.2261 90.2031 39.2261C90.2033 39.2261 90.2035 39.2261 90.2037 39.2261C90.2039 39.2261 90.2041 39.2261 90.2043 39.2261C90.2045 39.2261 90.2047 39.2261 90.2049 39.2261C90.2051 39.2261 90.2053 39.2261 90.2056 39.2261C90.2058 39.2261 90.206 39.2261 90.2062 39.2261C90.2064 39.2261 90.2066 39.2261 90.2068 39.2261C90.207 39.2261 90.2072 39.2261 90.2074 39.2261C90.2076 39.2261 90.2078 39.2261 90.208 39.2261C90.2082 39.2261 90.2084 39.2261 90.2086 39.2261C90.2089 39.2261 90.2091 39.2261 90.2093 39.2261C90.2095 39.2261 90.2097 39.2261 90.2099 39.2261C90.2101 39.2261 90.2103 39.2261 90.2105 39.2261C90.2107 39.2261 90.2109 39.2261 90.2111 39.2261C90.2113 39.2261 90.2115 39.2261 90.2117 39.2261C90.2119 39.2261 90.2122 39.2261 90.2124 39.2261C90.2126 39.2261 90.2128 39.2261 90.213 39.2261C90.2132 39.2261 90.2134 39.2261 90.2136 39.2261C90.2138 39.2261 90.214 39.2261 90.2142 39.2261C90.2144 39.2261 90.2146 39.2261 90.2148 39.2261C90.215 39.2261 90.2153 39.2261 90.2155 39.2261C90.2157 39.2261 90.2159 39.2261 90.2161 39.2261C90.2163 39.2261 90.2165 39.2261 90.2167 39.2261C90.2169 39.2261 90.2171 39.2261 90.2173 39.2261C90.2175 39.2261 90.2177 39.2261 90.2179 39.2261C90.2181 39.2261 90.2183 39.2261 90.2186 39.2261C90.2188 39.2261 90.219 39.2261 90.2192 39.2261C90.2194 39.2261 90.2196 39.2261 90.2198 39.2261C90.22 39.2261 90.2202 39.2261 90.2204 39.2261C90.2206 39.2261 90.2208 39.2261 90.221 39.2261C90.2212 39.2261 90.2214 39.2261 90.2217 39.2261C90.2219 39.2261 90.2221 39.2261 90.2223 39.2261C90.2225 39.2261 90.2227 39.2261 90.2229 39.2261C90.2231 39.2261 90.2233 39.2261 90.2235 39.2261C90.2237 39.2261 90.2239 39.2261 90.2241 39.2261C90.2243 39.2261 90.2246 39.2261 90.2248 39.2261C90.225 39.2261 90.2252 39.2261 90.2254 39.2261V38.6261C90.2252 38.6261 90.225 38.6261 90.2248 38.6261C90.2246 38.6261 90.2243 38.6261 90.2241 38.6261C90.2239 38.6261 90.2237 38.6261 90.2235 38.6261C90.2233 38.6261 90.2231 38.6261 90.2229 38.6261C90.2227 38.6261 90.2225 38.6261 90.2223 38.6261C90.2221 38.6261 90.2219 38.6261 90.2217 38.6261C90.2214 38.6261 90.2212 38.6261 90.221 38.6261C90.2208 38.6261 90.2206 38.6261 90.2204 38.6261C90.2202 38.6261 90.22 38.6261 90.2198 38.6261C90.2196 38.6261 90.2194 38.6261 90.2192 38.6261C90.219 38.6261 90.2188 38.6261 90.2186 38.6261C90.2183 38.6261 90.2181 38.6261 90.2179 38.6261C90.2177 38.6261 90.2175 38.6261 90.2173 38.6261C90.2171 38.6261 90.2169 38.6261 90.2167 38.6261C90.2165 38.6261 90.2163 38.6261 90.2161 38.6261C90.2159 38.6261 90.2157 38.6261 90.2155 38.6261C90.2153 38.6261 90.215 38.6261 90.2148 38.6261C90.2146 38.6261 90.2144 38.6261 90.2142 38.6261C90.214 38.6261 90.2138 38.6261 90.2136 38.6261C90.2134 38.6261 90.2132 38.6261 90.213 38.6261C90.2128 38.6261 90.2126 38.6261 90.2124 38.6261C90.2122 38.6261 90.2119 38.6261 90.2117 38.6261C90.2115 38.6261 90.2113 38.6261 90.2111 38.6261C90.2109 38.6261 90.2107 38.6261 90.2105 38.6261C90.2103 38.6261 90.2101 38.6261 90.2099 38.6261C90.2097 38.6261 90.2095 38.6261 90.2093 38.6261C90.2091 38.6261 90.2089 38.6261 90.2086 38.6261C90.2084 38.6261 90.2082 38.6261 90.208 38.6261C90.2078 38.6261 90.2076 38.6261 90.2074 38.6261C90.2072 38.6261 90.207 38.6261 90.2068 38.6261C90.2066 38.6261 90.2064 38.6261 90.2062 38.6261C90.206 38.6261 90.2058 38.6261 90.2056 38.6261C90.2053 38.6261 90.2051 38.6261 90.2049 38.6261C90.2047 38.6261 90.2045 38.6261 90.2043 38.6261C90.2041 38.6261 90.2039 38.6261 90.2037 38.6261C90.2035 38.6261 90.2033 38.6261 90.2031 38.6261C90.2029 38.6261 90.2027 38.6261 90.2025 38.6261C90.2023 38.6261 90.2021 38.6261 90.2018 38.6261C90.2016 38.6261 90.2014 38.6261 90.2012 38.6261C90.201 38.6261 90.2008 38.6261 90.2006 38.6261C90.2004 38.6261 90.2002 38.6261 90.2 38.6261C90.1998 38.6261 90.1996 38.6261 90.1994 38.6261C90.1992 38.6261 90.199 38.6261 90.1988 38.6261C90.1986 38.6261 90.1983 38.6261 90.1981 38.6261C90.1979 38.6261 90.1977 38.6261 90.1975 38.6261C90.1973 38.6261 90.1971 38.6261 90.1969 38.6261C90.1967 38.6261 90.1965 38.6261 90.1963 38.6261C90.1961 38.6261 90.1959 38.6261 90.1957 38.6261C90.1955 38.6261 90.1953 38.6261 90.1951 38.6261C90.1949 38.6261 90.1946 38.6261 90.1944 38.6261C90.1942 38.6261 90.194 38.6261 90.1938 38.6261C90.1936 38.6261 90.1934 38.6261 90.1932 38.6261C90.193 38.6261 90.1928 38.6261 90.1926 38.6261C90.1924 38.6261 90.1922 38.6261 90.192 38.6261C90.1918 38.6261 90.1916 38.6261 90.1914 38.6261C90.1912 38.6261 90.191 38.6261 90.1907 38.6261C90.1905 38.6261 90.1903 38.6261 90.1901 38.6261C90.1899 38.6261 90.1897 38.6261 90.1895 38.6261C90.1893 38.6261 90.1891 38.6261 90.1889 38.6261C90.1887 38.6261 90.1885 38.6261 90.1883 38.6261C90.1881 38.6261 90.1879 38.6261 90.1877 38.6261C90.1875 38.6261 90.1873 38.6261 90.187 38.6261C90.1868 38.6261 90.1866 38.6261 90.1864 38.6261C90.1862 38.6261 90.186 38.6261 90.1858 38.6261C90.1856 38.6261 90.1854 38.6261 90.1852 38.6261C90.185 38.6261 90.1848 38.6261 90.1846 38.6261C90.1844 38.6261 90.1842 38.6261 90.184 38.6261C90.1838 38.6261 90.1836 38.6261 90.1834 38.6261C90.1832 38.6261 90.1829 38.6261 90.1827 38.6261C90.1825 38.6261 90.1823 38.6261 90.1821 38.6261C90.1819 38.6261 90.1817 38.6261 90.1815 38.6261C90.1813 38.6261 90.1811 38.6261 90.1809 38.6261C90.1807 38.6261 90.1805 38.6261 90.1803 38.6261C90.1801 38.6261 90.1799 38.6261 90.1797 38.6261C90.1795 38.6261 90.1793 38.6261 90.1791 38.6261C90.1789 38.6261 90.1786 38.6261 90.1784 38.6261C90.1782 38.6261 90.178 38.6261 90.1778 38.6261C90.1776 38.6261 90.1774 38.6261 90.1772 38.6261C90.177 38.6261 90.1768 38.6261 90.1766 38.6261C90.1764 38.6261 90.1762 38.6261 90.176 38.6261C90.1758 38.6261 90.1756 38.6261 90.1754 38.6261C90.1752 38.6261 90.175 38.6261 90.1748 38.6261C90.1746 38.6261 90.1743 38.6261 90.1741 38.6261C90.1739 38.6261 90.1737 38.6261 90.1735 38.6261C90.1733 38.6261 90.1731 38.6261 90.1729 38.6261C90.1727 38.6261 90.1725 38.6261 90.1723 38.6261C90.1721 38.6261 90.1719 38.6261 90.1717 38.6261C90.1715 38.6261 90.1713 38.6261 90.1711 38.6261C90.1709 38.6261 90.1707 38.6261 90.1705 38.6261C90.1703 38.6261 90.1701 38.6261 90.1698 38.6261C90.1696 38.6261 90.1694 38.6261 90.1692 38.6261C90.169 38.6261 90.1688 38.6261 90.1686 38.6261C90.1684 38.6261 90.1682 38.6261 90.168 38.6261C90.1678 38.6261 90.1676 38.6261 90.1674 38.6261C90.1672 38.6261 90.167 38.6261 90.1668 38.6261C90.1666 38.6261 90.1664 38.6261 90.1662 38.6261C90.166 38.6261 90.1658 38.6261 90.1656 38.6261C90.1654 38.6261 90.1652 38.6261 90.1649 38.6261C90.1647 38.6261 90.1645 38.6261 90.1643 38.6261C90.1641 38.6261 90.1639 38.6261 90.1637 38.6261C90.1635 38.6261 90.1633 38.6261 90.1631 38.6261C90.1629 38.6261 90.1627 38.6261 90.1625 38.6261C90.1623 38.6261 90.1621 38.6261 90.1619 38.6261C90.1617 38.6261 90.1615 38.6261 90.1613 38.6261C90.1611 38.6261 90.1609 38.6261 90.1607 38.6261C90.1605 38.6261 90.1603 38.6261 90.1601 38.6261C90.1598 38.6261 90.1596 38.6261 90.1594 38.6261C90.1592 38.6261 90.159 38.6261 90.1588 38.6261C90.1586 38.6261 90.1584 38.6261 90.1582 38.6261C90.158 38.6261 90.1578 38.6261 90.1576 38.6261C90.1574 38.6261 90.1572 38.6261 90.157 38.6261C90.1568 38.6261 90.1566 38.6261 90.1564 38.6261C90.1562 38.6261 90.156 38.6261 90.1558 38.6261C90.1556 38.6261 90.1554 38.6261 90.1552 38.6261C90.155 38.6261 90.1548 38.6261 90.1545 38.6261C90.1543 38.6261 90.1541 38.6261 90.1539 38.6261C90.1537 38.6261 90.1535 38.6261 90.1533 38.6261C90.1531 38.6261 90.1529 38.6261 90.1527 38.6261C90.1525 38.6261 90.1523 38.6261 90.1521 38.6261C90.1519 38.6261 90.1517 38.6261 90.1515 38.6261C90.1513 38.6261 90.1511 38.6261 90.1509 38.6261C90.1507 38.6261 90.1505 38.6261 90.1503 38.6261C90.1501 38.6261 90.1499 38.6261 90.1497 38.6261C90.1495 38.6261 90.1493 38.6261 90.1491 38.6261C90.1489 38.6261 90.1486 38.6261 90.1484 38.6261C90.1482 38.6261 90.148 38.6261 90.1478 38.6261C90.1476 38.6261 90.1474 38.6261 90.1472 38.6261C90.147 38.6261 90.1468 38.6261 90.1466 38.6261C90.1464 38.6261 90.1462 38.6261 90.146 38.6261C90.1458 38.6261 90.1456 38.6261 90.1454 38.6261C90.1452 38.6261 90.145 38.6261 90.1448 38.6261C90.1446 38.6261 90.1444 38.6261 90.1442 38.6261C90.144 38.6261 90.1438 38.6261 90.1436 38.6261C90.1434 38.6261 90.1432 38.6261 90.143 38.6261C90.1428 38.6261 90.1426 38.6261 90.1423 38.6261C90.1421 38.6261 90.1419 38.6261 90.1417 38.6261C90.1415 38.6261 90.1413 38.6261 90.1411 38.6261C90.1409 38.6261 90.1407 38.6261 90.1405 38.6261C90.1403 38.6261 90.1401 38.6261 90.1399 38.6261C90.1397 38.6261 90.1395 38.6261 90.1393 38.6261C90.1391 38.6261 90.1389 38.6261 90.1387 38.6261C90.1385 38.6261 90.1383 38.6261 90.1381 38.6261C90.1379 38.6261 90.1377 38.6261 90.1375 38.6261C90.1373 38.6261 90.1371 38.6261 90.1369 38.6261C90.1367 38.6261 90.1365 38.6261 90.1363 38.6261C90.1361 38.6261 90.1359 38.6261 90.1357 38.6261C90.1354 38.6261 90.1352 38.6261 90.135 38.6261C90.1348 38.6261 90.1346 38.6261 90.1344 38.6261C90.1342 38.6261 90.134 38.6261 90.1338 38.6261C90.1336 38.6261 90.1334 38.6261 90.1332 38.6261C90.133 38.6261 90.1328 38.6261 90.1326 38.6261C90.1324 38.6261 90.1322 38.6261 90.132 38.6261C90.1318 38.6261 90.1316 38.6261 90.1314 38.6261C90.1312 38.6261 90.131 38.6261 90.1308 38.6261C90.1306 38.6261 90.1304 38.6261 90.1302 38.6261C90.13 38.6261 90.1298 38.6261 90.1296 38.6261C90.1294 38.6261 90.1292 38.6261 90.129 38.6261C90.1288 38.6261 90.1286 38.6261 90.1284 38.6261C90.1282 38.6261 90.128 38.6261 90.1278 38.6261C90.1275 38.6261 90.1273 38.6261 90.1271 38.6261C90.1269 38.6261 90.1267 38.6261 90.1265 38.6261C90.1263 38.6261 90.1261 38.6261 90.1259 38.6261C90.1257 38.6261 90.1255 38.6261 90.1253 38.6261C90.1251 38.6261 90.1249 38.6261 90.1247 38.6261C90.1245 38.6261 90.1243 38.6261 90.1241 38.6261C90.1239 38.6261 90.1237 38.6261 90.1235 38.6261C90.1233 38.6261 90.1231 38.6261 90.1229 38.6261C90.1227 38.6261 90.1225 38.6261 90.1223 38.6261C90.1221 38.6261 90.1219 38.6261 90.1217 38.6261C90.1215 38.6261 90.1213 38.6261 90.1211 38.6261C90.1209 38.6261 90.1207 38.6261 90.1205 38.6261C90.1203 38.6261 90.1201 38.6261 90.1199 38.6261C90.1197 38.6261 90.1195 38.6261 90.1193 38.6261C90.1191 38.6261 90.1189 38.6261 90.1187 38.6261C90.1185 38.6261 90.1182 38.6261 90.118 38.6261C90.1178 38.6261 90.1176 38.6261 90.1174 38.6261C90.1172 38.6261 90.117 38.6261 90.1168 38.6261C90.1166 38.6261 90.1164 38.6261 90.1162 38.6261C90.116 38.6261 90.1158 38.6261 90.1156 38.6261C90.1154 38.6261 90.1152 38.6261 90.115 38.6261C90.1148 38.6261 90.1146 38.6261 90.1144 38.6261C90.1142 38.6261 90.114 38.6261 90.1138 38.6261C90.1136 38.6261 90.1134 38.6261 90.1132 38.6261C90.113 38.6261 90.1128 38.6261 90.1126 38.6261C90.1124 38.6261 90.1122 38.6261 90.112 38.6261C90.1118 38.6261 90.1116 38.6261 90.1114 38.6261C90.1112 38.6261 90.111 38.6261 90.1108 38.6261C90.1106 38.6261 90.1104 38.6261 90.1102 38.6261C90.11 38.6261 90.1098 38.6261 90.1096 38.6261C90.1094 38.6261 90.1092 38.6261 90.109 38.6261C90.1088 38.6261 90.1086 38.6261 90.1084 38.6261C90.1082 38.6261 90.108 38.6261 90.1078 38.6261C90.1076 38.6261 90.1074 38.6261 90.1072 38.6261C90.107 38.6261 90.1068 38.6261 90.1066 38.6261C90.1064 38.6261 90.1062 38.6261 90.106 38.6261C90.1057 38.6261 90.1055 38.6261 90.1053 38.6261C90.1051 38.6261 90.1049 38.6261 90.1047 38.6261C90.1045 38.6261 90.1043 38.6261 90.1041 38.6261C90.1039 38.6261 90.1037 38.6261 90.1035 38.6261C90.1033 38.6261 90.1031 38.6261 90.1029 38.6261C90.1027 38.6261 90.1025 38.6261 90.1023 38.6261C90.1021 38.6261 90.1019 38.6261 90.1017 38.6261C90.1015 38.6261 90.1013 38.6261 90.1011 38.6261C90.1009 38.6261 90.1007 38.6261 90.1005 38.6261C90.1003 38.6261 90.1001 38.6261 90.0999 38.6261C90.0997 38.6261 90.0995 38.6261 90.0993 38.6261C90.0991 38.6261 90.0989 38.6261 90.0987 38.6261C90.0985 38.6261 90.0983 38.6261 90.0981 38.6261C90.0979 38.6261 90.0977 38.6261 90.0975 38.6261C90.0973 38.6261 90.0971 38.6261 90.0969 38.6261C90.0967 38.6261 90.0965 38.6261 90.0963 38.6261C90.0961 38.6261 90.0959 38.6261 90.0957 38.6261C90.0955 38.6261 90.0953 38.6261 90.0951 38.6261C90.0949 38.6261 90.0947 38.6261 90.0945 38.6261C90.0943 38.6261 90.0941 38.6261 90.0939 38.6261C90.0937 38.6261 90.0935 38.6261 90.0933 38.6261C90.0931 38.6261 90.0929 38.6261 90.0927 38.6261C90.0925 38.6261 90.0923 38.6261 90.0921 38.6261C90.0919 38.6261 90.0917 38.6261 90.0915 38.6261C90.0913 38.6261 90.0911 38.6261 90.0909 38.6261C90.0907 38.6261 90.0905 38.6261 90.0903 38.6261C90.0901 38.6261 90.0899 38.6261 90.0897 38.6261C90.0895 38.6261 90.0893 38.6261 90.0891 38.6261C90.0889 38.6261 90.0887 38.6261 90.0885 38.6261C90.0883 38.6261 90.0881 38.6261 90.0879 38.6261C90.0877 38.6261 90.0875 38.6261 90.0873 38.6261C90.0871 38.6261 90.0869 38.6261 90.0867 38.6261C90.0865 38.6261 90.0863 38.6261 90.0861 38.6261C90.0859 38.6261 90.0857 38.6261 90.0855 38.6261C90.0853 38.6261 90.0851 38.6261 90.0849 38.6261C90.0847 38.6261 90.0845 38.6261 90.0843 38.6261C90.0841 38.6261 90.0839 38.6261 90.0837 38.6261C90.0835 38.6261 90.0833 38.6261 90.0831 38.6261C90.0829 38.6261 90.0827 38.6261 90.0825 38.6261C90.0823 38.6261 90.0821 38.6261 90.0819 38.6261C90.0817 38.6261 90.0815 38.6261 90.0813 38.6261C90.0811 38.6261 90.0809 38.6261 90.0807 38.6261C90.0805 38.6261 90.0803 38.6261 90.0801 38.6261C90.0799 38.6261 90.0797 38.6261 90.0795 38.6261C90.0793 38.6261 90.0791 38.6261 90.0789 38.6261C90.0787 38.6261 90.0785 38.6261 90.0783 38.6261C90.0781 38.6261 90.0779 38.6261 90.0777 38.6261C90.0775 38.6261 90.0773 38.6261 90.0771 38.6261C90.0769 38.6261 90.0767 38.6261 90.0765 38.6261C90.0763 38.6261 90.0761 38.6261 90.0759 38.6261C90.0757 38.6261 90.0755 38.6261 90.0753 38.6261C90.0751 38.6261 90.0749 38.6261 90.0747 38.6261C90.0745 38.6261 90.0743 38.6261 90.0741 38.6261C90.0739 38.6261 90.0737 38.6261 90.0735 38.6261C90.0733 38.6261 90.0731 38.6261 90.0729 38.6261C90.0727 38.6261 90.0725 38.6261 90.0723 38.6261C90.0721 38.6261 90.0719 38.6261 90.0717 38.6261C90.0715 38.6261 90.0713 38.6261 90.0711 38.6261C90.0709 38.6261 90.0707 38.6261 90.0705 38.6261C90.0703 38.6261 90.0701 38.6261 90.0699 38.6261C90.0697 38.6261 90.0695 38.6261 90.0693 38.6261C90.0691 38.6261 90.0689 38.6261 90.0687 38.6261C90.0685 38.6261 90.0683 38.6261 90.0681 38.6261C90.0679 38.6261 90.0677 38.6261 90.0675 38.6261C90.0673 38.6261 90.0671 38.6261 90.0669 38.6261C90.0667 38.6261 90.0665 38.6261 90.0663 38.6261C90.0661 38.6261 90.0659 38.6261 90.0657 38.6261C90.0655 38.6261 90.0653 38.6261 90.0651 38.6261C90.0649 38.6261 90.0647 38.6261 90.0645 38.6261C90.0643 38.6261 90.0641 38.6261 90.0639 38.6261C90.0637 38.6261 90.0635 38.6261 90.0633 38.6261C90.0631 38.6261 90.0629 38.6261 90.0627 38.6261C90.0625 38.6261 90.0623 38.6261 90.0621 38.6261C90.0619 38.6261 90.0617 38.6261 90.0615 38.6261C90.0613 38.6261 90.0611 38.6261 90.0609 38.6261C90.0607 38.6261 90.0605 38.6261 90.0603 38.6261C90.0601 38.6261 90.0599 38.6261 90.0597 38.6261C90.0595 38.6261 90.0593 38.6261 90.0591 38.6261C90.0589 38.6261 90.0587 38.6261 90.0585 38.6261C90.0583 38.6261 90.0581 38.6261 90.0579 38.6261C90.0577 38.6261 90.0575 38.6261 90.0573 38.6261C90.0571 38.6261 90.0569 38.6261 90.0567 38.6261C90.0565 38.6261 90.0563 38.6261 90.0561 38.6261C90.0559 38.6261 90.0557 38.6261 90.0555 38.6261C90.0553 38.6261 90.0551 38.6261 90.0549 38.6261C90.0547 38.6261 90.0545 38.6261 90.0543 38.6261C90.0541 38.6261 90.0539 38.6261 90.0537 38.6261C90.0535 38.6261 90.0533 38.6261 90.0531 38.6261C90.0529 38.6261 90.0527 38.6261 90.0525 38.6261C90.0523 38.6261 90.0521 38.6261 90.0519 38.6261C90.0517 38.6261 90.0515 38.6261 90.0513 38.6261C90.0511 38.6261 90.0509 38.6261 90.0507 38.6261C90.0506 38.6261 90.0504 38.6261 90.0502 38.6261C90.05 38.6261 90.0498 38.6261 90.0496 38.6261C90.0494 38.6261 90.0492 38.6261 90.049 38.6261C90.0488 38.6261 90.0486 38.6261 90.0484 38.6261C90.0482 38.6261 90.048 38.6261 90.0478 38.6261C90.0476 38.6261 90.0474 38.6261 90.0472 38.6261C90.047 38.6261 90.0468 38.6261 90.0466 38.6261C90.0464 38.6261 90.0462 38.6261 90.046 38.6261C90.0458 38.6261 90.0456 38.6261 90.0454 38.6261C90.0452 38.6261 90.045 38.6261 90.0448 38.6261C90.0446 38.6261 90.0444 38.6261 90.0442 38.6261C90.044 38.6261 90.0438 38.6261 90.0436 38.6261C90.0434 38.6261 90.0432 38.6261 90.043 38.6261C90.0428 38.6261 90.0426 38.6261 90.0424 38.6261C90.0422 38.6261 90.042 38.6261 90.0418 38.6261C90.0416 38.6261 90.0414 38.6261 90.0412 38.6261C90.041 38.6261 90.0408 38.6261 90.0406 38.6261C90.0404 38.6261 90.0402 38.6261 90.04 38.6261C90.0398 38.6261 90.0396 38.6261 90.0394 38.6261C90.0392 38.6261 90.039 38.6261 90.0388 38.6261C90.0386 38.6261 90.0385 38.6261 90.0383 38.6261C90.0381 38.6261 90.0379 38.6261 90.0377 38.6261C90.0375 38.6261 90.0373 38.6261 90.0371 38.6261C90.0369 38.6261 90.0367 38.6261 90.0365 38.6261C90.0363 38.6261 90.0361 38.6261 90.0359 38.6261C90.0357 38.6261 90.0355 38.6261 90.0353 38.6261C90.0351 38.6261 90.0349 38.6261 90.0347 38.6261C90.0345 38.6261 90.0343 38.6261 90.0341 38.6261C90.0339 38.6261 90.0337 38.6261 90.0335 38.6261C90.0333 38.6261 90.0331 38.6261 90.0329 38.6261C90.0327 38.6261 90.0325 38.6261 90.0323 38.6261C90.0321 38.6261 90.0319 38.6261 90.0317 38.6261C90.0315 38.6261 90.0313 38.6261 90.0311 38.6261C90.0309 38.6261 90.0307 38.6261 90.0305 38.6261C90.0303 38.6261 90.0301 38.6261 90.0299 38.6261C90.0297 38.6261 90.0295 38.6261 90.0293 38.6261C90.0292 38.6261 90.029 38.6261 90.0288 38.6261C90.0286 38.6261 90.0284 38.6261 90.0282 38.6261C90.028 38.6261 90.0278 38.6261 90.0276 38.6261C90.0274 38.6261 90.0272 38.6261 90.027 38.6261C90.0268 38.6261 90.0266 38.6261 90.0264 38.6261C90.0262 38.6261 90.026 38.6261 90.0258 38.6261C90.0256 38.6261 90.0254 38.6261 90.0252 38.6261C90.025 38.6261 90.0248 38.6261 90.0246 38.6261C90.0244 38.6261 90.0242 38.6261 90.024 38.6261C90.0238 38.6261 90.0236 38.6261 90.0234 38.6261C90.0232 38.6261 90.023 38.6261 90.0228 38.6261C90.0226 38.6261 90.0224 38.6261 90.0222 38.6261C90.022 38.6261 90.0218 38.6261 90.0216 38.6261C90.0215 38.6261 90.0213 38.6261 90.0211 38.6261C90.0209 38.6261 90.0207 38.6261 90.0205 38.6261C90.0203 38.6261 90.0201 38.6261 90.0199 38.6261C90.0197 38.6261 90.0195 38.6261 90.0193 38.6261C90.0191 38.6261 90.0189 38.6261 90.0187 38.6261C90.0185 38.6261 90.0183 38.6261 90.0181 38.6261C90.0179 38.6261 90.0177 38.6261 90.0175 38.6261C90.0173 38.6261 90.0171 38.6261 90.0169 38.6261C90.0167 38.6261 90.0165 38.6261 90.0163 38.6261C90.0161 38.6261 90.0159 38.6261 90.0157 38.6261C90.0155 38.6261 90.0153 38.6261 90.0151 38.6261C90.0149 38.6261 90.0147 38.6261 90.0146 38.6261C90.0144 38.6261 90.0142 38.6261 90.014 38.6261C90.0138 38.6261 90.0136 38.6261 90.0134 38.6261C90.0132 38.6261 90.013 38.6261 90.0128 38.6261C90.0126 38.6261 90.0124 38.6261 90.0122 38.6261C90.012 38.6261 90.0118 38.6261 90.0116 38.6261C90.0114 38.6261 90.0112 38.6261 90.011 38.6261C90.0108 38.6261 90.0106 38.6261 90.0104 38.6261C90.0102 38.6261 90.01 38.6261 90.0098 38.6261C90.0096 38.6261 90.0094 38.6261 90.0092 38.6261C90.009 38.6261 90.0088 38.6261 90.0086 38.6261C90.0085 38.6261 90.0083 38.6261 90.0081 38.6261C90.0079 38.6261 90.0077 38.6261 90.0075 38.6261C90.0073 38.6261 90.0071 38.6261 90.0069 38.6261C90.0067 38.6261 90.0065 38.6261 90.0063 38.6261C90.0061 38.6261 90.0059 38.6261 90.0057 38.6261C90.0055 38.6261 90.0053 38.6261 90.0051 38.6261C90.0049 38.6261 90.0047 38.6261 90.0045 38.6261C90.0043 38.6261 90.0041 38.6261 90.0039 38.6261C90.0037 38.6261 90.0035 38.6261 90.0033 38.6261C90.0031 38.6261 90.003 38.6261 90.0028 38.6261C90.0026 38.6261 90.0024 38.6261 90.0022 38.6261C90.002 38.6261 90.0018 38.6261 90.0016 38.6261C90.0014 38.6261 90.0012 38.6261 90.001 38.6261C90.0008 38.6261 90.0006 38.6261 90.0004 38.6261C90.0002 38.6261 90 38.6261 89.9998 38.6261C89.9996 38.6261 89.9994 38.6261 89.9992 38.6261C89.999 38.6261 89.9988 38.6261 89.9986 38.6261C89.9984 38.6261 89.9982 38.6261 89.998 38.6261C89.9978 38.6261 89.9977 38.6261 89.9975 38.6261C89.9973 38.6261 89.9971 38.6261 89.9969 38.6261C89.9967 38.6261 89.9965 38.6261 89.9963 38.6261C89.9961 38.6261 89.9959 38.6261 89.9957 38.6261C89.9955 38.6261 89.9953 38.6261 89.9951 38.6261C89.9949 38.6261 89.9947 38.6261 89.9945 38.6261C89.9943 38.6261 89.9941 38.6261 89.9939 38.6261C89.9937 38.6261 89.9935 38.6261 89.9933 38.6261C89.9931 38.6261 89.9929 38.6261 89.9928 38.6261C89.9926 38.6261 89.9924 38.6261 89.9922 38.6261C89.992 38.6261 89.9918 38.6261 89.9916 38.6261C89.9914 38.6261 89.9912 38.6261 89.991 38.6261C89.9908 38.6261 89.9906 38.6261 89.9904 38.6261C89.9902 38.6261 89.99 38.6261 89.9898 38.6261C89.9896 38.6261 89.9894 38.6261 89.9892 38.6261C89.989 38.6261 89.9888 38.6261 89.9886 38.6261C89.9884 38.6261 89.9883 38.6261 89.9881 38.6261C89.9879 38.6261 89.9877 38.6261 89.9875 38.6261C89.9873 38.6261 89.9871 38.6261 89.9869 38.6261C89.9867 38.6261 89.9865 38.6261 89.9863 38.6261C89.9861 38.6261 89.9859 38.6261 89.9857 38.6261C89.9855 38.6261 89.9853 38.6261 89.9851 38.6261C89.9849 38.6261 89.9847 38.6261 89.9845 38.6261C89.9843 38.6261 89.9841 38.6261 89.9839 38.6261C89.9838 38.6261 89.9836 38.6261 89.9834 38.6261C89.9832 38.6261 89.983 38.6261 89.9828 38.6261C89.9826 38.6261 89.9824 38.6261 89.9822 38.6261C89.982 38.6261 89.9818 38.6261 89.9816 38.6261C89.9814 38.6261 89.9812 38.6261 89.981 38.6261C89.9808 38.6261 89.9806 38.6261 89.9804 38.6261C89.9802 38.6261 89.98 38.6261 89.9798 38.6261C89.9797 38.6261 89.9795 38.6261 89.9793 38.6261C89.9791 38.6261 89.9789 38.6261 89.9787 38.6261C89.9785 38.6261 89.9783 38.6261 89.9781 38.6261C89.9779 38.6261 89.9777 38.6261 89.9775 38.6261C89.9773 38.6261 89.9771 38.6261 89.9769 38.6261C89.9767 38.6261 89.9765 38.6261 89.9763 38.6261C89.9761 38.6261 89.9759 38.6261 89.9758 38.6261C89.9756 38.6261 89.9754 38.6261 89.9752 38.6261C89.975 38.6261 89.9748 38.6261 89.9746 38.6261C89.9744 38.6261 89.9742 38.6261 89.974 38.6261C89.9738 38.6261 89.9736 38.6261 89.9734 38.6261C89.9732 38.6261 89.973 38.6261 89.9728 38.6261C89.9726 38.6261 89.9724 38.6261 89.9722 38.6261C89.972 38.6261 89.9719 38.6261 89.9717 38.6261C89.9715 38.6261 89.9713 38.6261 89.9711 38.6261C89.9709 38.6261 89.9707 38.6261 89.9705 38.6261C89.9703 38.6261 89.9701 38.6261 89.9699 38.6261C89.9697 38.6261 89.9695 38.6261 89.9693 38.6261C89.9691 38.6261 89.9689 38.6261 89.9687 38.6261C89.9685 38.6261 89.9683 38.6261 89.9682 38.6261C89.968 38.6261 89.9678 38.6261 89.9676 38.6261C89.9674 38.6261 89.9672 38.6261 89.967 38.6261C89.9668 38.6261 89.9666 38.6261 89.9664 38.6261C89.9662 38.6261 89.966 38.6261 89.9658 38.6261C89.9656 38.6261 89.9654 38.6261 89.9652 38.6261C89.965 38.6261 89.9648 38.6261 89.9647 38.6261C89.9645 38.6261 89.9643 38.6261 89.9641 38.6261C89.9639 38.6261 89.9637 38.6261 89.9635 38.6261C89.9633 38.6261 89.9631 38.6261 89.9629 38.6261C89.9627 38.6261 89.9625 38.6261 89.9623 38.6261C89.9621 38.6261 89.9619 38.6261 89.9617 38.6261C89.9615 38.6261 89.9613 38.6261 89.9612 38.6261C89.961 38.6261 89.9608 38.6261 89.9606 38.6261C89.9604 38.6261 89.9602 38.6261 89.96 38.6261C89.9598 38.6261 89.9596 38.6261 89.9594 38.6261C89.9592 38.6261 89.959 38.6261 89.9588 38.6261C89.9586 38.6261 89.9584 38.6261 89.9582 38.6261C89.958 38.6261 89.9579 38.6261 89.9577 38.6261C89.9575 38.6261 89.9573 38.6261 89.9571 38.6261C89.9569 38.6261 89.9567 38.6261 89.9565 38.6261C89.9563 38.6261 89.9561 38.6261 89.9559 38.6261C89.9557 38.6261 89.9555 38.6261 89.9553 38.6261C89.9551 38.6261 89.9549 38.6261 89.9547 38.6261C89.9546 38.6261 89.9544 38.6261 89.9542 38.6261C89.954 38.6261 89.9538 38.6261 89.9536 38.6261C89.9534 38.6261 89.9532 38.6261 89.953 38.6261C89.9528 38.6261 89.9526 38.6261 89.9524 38.6261C89.9522 38.6261 89.952 38.6261 89.9518 38.6261C89.9516 38.6261 89.9515 38.6261 89.9513 38.6261C89.9511 38.6261 89.9509 38.6261 89.9507 38.6261C89.9505 38.6261 89.9503 38.6261 89.9501 38.6261C89.9499 38.6261 89.9497 38.6261 89.9495 38.6261C89.9493 38.6261 89.9491 38.6261 89.9489 38.6261C89.9487 38.6261 89.9485 38.6261 89.9484 38.6261C89.9482 38.6261 89.948 38.6261 89.9478 38.6261C89.9476 38.6261 89.9474 38.6261 89.9472 38.6261C89.947 38.6261 89.9468 38.6261 89.9466 38.6261C89.9464 38.6261 89.9462 38.6261 89.946 38.6261C89.9458 38.6261 89.9456 38.6261 89.9454 38.6261C89.9453 38.6261 89.9451 38.6261 89.9449 38.6261C89.9447 38.6261 89.9445 38.6261 89.9443 38.6261C89.9441 38.6261 89.9439 38.6261 89.9437 38.6261C89.9435 38.6261 89.9433 38.6261 89.9431 38.6261C89.9429 38.6261 89.9427 38.6261 89.9425 38.6261C89.9424 38.6261 89.9422 38.6261 89.942 38.6261C89.9418 38.6261 89.9416 38.6261 89.9414 38.6261C89.9412 38.6261 89.941 38.6261 89.9408 38.6261C89.9406 38.6261 89.9404 38.6261 89.9402 38.6261C89.94 38.6261 89.9398 38.6261 89.9396 38.6261C89.9395 38.6261 89.9393 38.6261 89.9391 38.6261C89.9389 38.6261 89.9387 38.6261 89.9385 38.6261C89.9383 38.6261 89.9381 38.6261 89.9379 38.6261C89.9377 38.6261 89.9375 38.6261 89.9373 38.6261C89.9371 38.6261 89.9369 38.6261 89.9367 38.6261C89.9366 38.6261 89.9364 38.6261 89.9362 38.6261C89.936 38.6261 89.9358 38.6261 89.9356 38.6261C89.9354 38.6261 89.9352 38.6261 89.935 38.6261C89.9348 38.6261 89.9346 38.6261 89.9344 38.6261C89.9342 38.6261 89.934 38.6261 89.9339 38.6261C89.9337 38.6261 89.9335 38.6261 89.9333 38.6261C89.9331 38.6261 89.9329 38.6261 89.9327 38.6261C89.9325 38.6261 89.9323 38.6261 89.9321 38.6261C89.9319 38.6261 89.9317 38.6261 89.9315 38.6261C89.9313 38.6261 89.9312 38.6261 89.931 38.6261C89.9308 38.6261 89.9306 38.6261 89.9304 38.6261C89.9302 38.6261 89.93 38.6261 89.9298 38.6261C89.9296 38.6261 89.9294 38.6261 89.9292 38.6261C89.929 38.6261 89.9288 38.6261 89.9286 38.6261C89.9285 38.6261 89.9283 38.6261 89.9281 38.6261C89.9279 38.6261 89.9277 38.6261 89.9275 38.6261C89.9273 38.6261 89.9271 38.6261 89.9269 38.6261C89.9267 38.6261 89.9265 38.6261 89.9263 38.6261C89.9261 38.6261 89.926 38.6261 89.9258 38.6261C89.9256 38.6261 89.9254 38.6261 89.9252 38.6261C89.925 38.6261 89.9248 38.6261 89.9246 38.6261C89.9244 38.6261 89.9242 38.6261 89.924 38.6261C89.9238 38.6261 89.9236 38.6261 89.9234 38.6261C89.9233 38.6261 89.9231 38.6261 89.9229 38.6261C89.9227 38.6261 89.9225 38.6261 89.9223 38.6261C89.9221 38.6261 89.9219 38.6261 89.9217 38.6261C89.9215 38.6261 89.9213 38.6261 89.9211 38.6261C89.9209 38.6261 89.9208 38.6261 89.9206 38.6261C89.9204 38.6261 89.9202 38.6261 89.92 38.6261C89.9198 38.6261 89.9196 38.6261 89.9194 38.6261C89.9192 38.6261 89.919 38.6261 89.9188 38.6261V39.2261ZM90.2453 39.2255C90.3593 39.2179 90.4695 39.2103 90.576 39.2027L90.5333 38.6042C90.4278 38.6117 90.3185 38.6193 90.2054 38.6268L90.2453 39.2255ZM90.2546 38.9034V41.3217H90.8546V38.9034H90.2546ZM90.5435 41.0219L89.0108 41.0787L89.033 41.6783L90.5657 41.6215L90.5435 41.0219ZM89.0115 41.0787C87.4988 41.1311 86.5706 40.8607 86.1046 40.3759L85.672 40.7916C86.3263 41.4724 87.4871 41.7319 89.0323 41.6783L89.0115 41.0787ZM86.1026 40.3738C85.816 40.0812 85.6434 39.6007 85.6434 38.8694H85.0434C85.0434 39.6821 85.234 40.3445 85.674 40.7937L86.1026 40.3738ZM85.6434 38.8694V31.2511H85.0434V38.8694H85.6434ZM85.3434 30.9511H83.6176V31.5511H85.3434V30.9511ZM99.4558 35.1908H99.7558V34.6474L99.296 34.9369L99.4558 35.1908ZM98.8314 35.5087L98.9356 35.7901L98.9411 35.7879L98.8314 35.5087ZM97.2532 35.8607L97.3057 36.1561L97.3085 36.1555L97.2532 35.8607ZM95.7886 36.3035L95.6362 36.0451L95.636 36.0452L95.7886 36.3035ZM95.4934 38.8807L95.3024 39.1122L95.3088 39.1172L95.4934 38.8807ZM98.5362 38.6309L98.3654 38.3843L98.3639 38.3853L98.5362 38.6309ZM99.4558 36.3943L99.7558 36.4006V36.3943H99.4558ZM97.4916 33.6808L97.5285 33.9785L97.5293 33.9784L97.4916 33.6808ZM98.7746 33.397L98.657 33.121L98.6535 33.1225L98.7746 33.397ZM98.9335 31.4328L98.7859 31.694L98.7927 31.6977L98.9335 31.4328ZM95.7659 31.7053L95.5362 31.5123L95.5329 31.5163L95.7659 31.7053ZM95.3118 32.8406V33.1406H95.5679L95.6081 32.8877L95.3118 32.8406ZM92.1895 32.8406L91.8901 32.8218L91.8701 33.1406H92.1895V32.8406ZM93.0978 30.1725L92.8618 29.9873L92.8603 29.9893L93.0978 30.1725ZM102.714 39.4938L102.414 39.5019L102.415 39.5099L102.714 39.4938ZM103.384 40.7313H103.684V40.5399L103.51 40.4592L103.384 40.7313ZM103.384 41.2082V41.5082H103.684V41.2082H103.384ZM99.8645 41.2082L99.5854 41.3181L99.6603 41.5082H99.8645V41.2082ZM99.5693 39.7549L99.8684 39.7307L99.813 39.048L99.3488 39.5516L99.5693 39.7549ZM98.0253 40.9925L98.175 41.2524L98.1766 41.2515L98.0253 40.9925ZM92.8821 40.6405L92.6832 40.8651L92.6857 40.8673L92.8821 40.6405ZM93.552 34.6118L93.4021 34.3519L93.4013 34.3523L93.552 34.6118ZM96.3904 33.817L96.3535 33.5193L96.3525 33.5194L96.3904 33.817ZM99.296 34.9369C99.1065 35.0562 98.9151 35.1535 98.7217 35.2295L98.9411 35.7879C99.1715 35.6974 99.3964 35.5828 99.6157 35.4447L99.296 34.9369ZM98.7272 35.2274C98.5459 35.2945 98.281 35.3627 97.9246 35.4296L98.0351 36.0193C98.4053 35.9499 98.7081 35.8743 98.9356 35.79L98.7272 35.2274ZM97.9246 35.4296L97.1979 35.5658L97.3085 36.1555L98.0351 36.0193L97.9246 35.4296ZM97.2007 35.5653C96.5127 35.6876 95.9799 35.8424 95.6362 36.0451L95.941 36.5619C96.1877 36.4164 96.6313 36.2759 97.3057 36.156L97.2007 35.5653ZM95.636 36.0452C95.0376 36.3988 94.7393 36.9595 94.7393 37.6772H95.3393C95.3393 37.1537 95.5405 36.7985 95.9412 36.5617L95.636 36.0452ZM94.7393 37.6772C94.7393 38.2812 94.9058 38.7849 95.3025 39.1121L95.6843 38.6493C95.4755 38.477 95.3393 38.1784 95.3393 37.6772H94.7393ZM95.3088 39.1172C95.678 39.4053 96.1197 39.544 96.6174 39.544V38.944C96.2372 38.944 95.9295 38.8405 95.678 38.6442L95.3088 39.1172ZM96.6174 39.544C97.3769 39.544 98.0763 39.3198 98.7084 38.8766L98.3639 38.3853C97.8304 38.7595 97.2507 38.944 96.6174 38.944V39.544ZM98.7069 38.8776C99.4106 38.3905 99.7321 37.5283 99.7557 36.4006L99.1559 36.388C99.1341 37.425 98.8425 38.054 98.3654 38.3843L98.7069 38.8776ZM99.7558 36.3943V35.1908H99.1558V36.3943H99.7558ZM97.5293 33.9784C98.131 33.9023 98.5958 33.8037 98.8957 33.6714L98.6535 33.1225C98.4387 33.2172 98.0482 33.3079 97.454 33.3832L97.5293 33.9784ZM98.8922 33.6729C99.1569 33.5601 99.3783 33.4062 99.5337 33.1999C99.6916 32.9901 99.7672 32.7447 99.7672 32.4773H99.1672C99.1672 32.6262 99.1273 32.7422 99.0544 32.839C98.9788 32.9393 98.854 33.037 98.657 33.121L98.8922 33.6729ZM99.7672 32.4773C99.7672 31.8931 99.5547 31.4234 99.0744 31.1679L98.7927 31.6977C99.0238 31.8206 99.1672 32.0473 99.1672 32.4773H99.7672ZM99.0812 31.1716C98.6666 30.9373 98.0905 30.8376 97.3895 30.8376V31.4376C98.0509 31.4376 98.5042 31.5347 98.7859 31.694L99.0812 31.1716ZM97.3895 30.8376C96.585 30.8376 95.9363 31.036 95.5362 31.5123L95.9956 31.8982C96.2313 31.6177 96.665 31.4376 97.3895 31.4376V30.8376ZM95.5329 31.5163C95.2632 31.8489 95.0967 32.2818 95.0155 32.7936L95.6081 32.8877C95.6782 32.4458 95.8144 32.1218 95.9989 31.8942L95.5329 31.5163ZM95.3118 32.5406H92.1895V33.1406H95.3118V32.5406ZM92.4889 32.8595C92.5542 31.8228 92.8422 30.9948 93.3353 30.3558L92.8603 29.9893C92.2786 30.743 91.9611 31.6937 91.8901 32.8218L92.4889 32.8595ZM93.3338 30.3577C94.1082 29.3709 95.4661 28.8376 97.503 28.8376V28.2376C95.377 28.2376 93.798 28.7943 92.8618 29.9873L93.3338 30.3577ZM97.503 28.8376C98.8174 28.8376 99.9729 29.0981 100.977 29.6109L101.25 29.0766C100.15 28.5146 98.8983 28.2376 97.503 28.2376V28.8376ZM100.977 29.6109C101.901 30.0828 102.392 30.973 102.392 32.3865H102.992C102.992 30.8178 102.43 29.6795 101.25 29.0766L100.977 29.6109ZM102.392 32.3865V38.0633H102.992V32.3865H102.392ZM102.392 38.0633C102.392 38.4604 102.399 38.9401 102.414 39.5019L103.014 39.4857C102.999 38.9273 102.992 38.4533 102.992 38.0633H102.392ZM102.415 39.5099C102.427 39.7318 102.45 39.9275 102.487 40.0929C102.523 40.2549 102.577 40.4075 102.662 40.5287L103.153 40.1846C103.132 40.1545 103.1 40.0876 103.072 39.9619C103.045 39.8398 103.025 39.6796 103.014 39.4778L102.415 39.5099ZM102.662 40.5287C102.805 40.7334 103.01 40.8886 103.258 41.0034L103.51 40.4592C103.334 40.3773 103.222 40.2827 103.153 40.1846L102.662 40.5287ZM103.084 40.7313V41.2082H103.684V40.7313H103.084ZM103.384 40.9082H99.8645V41.5082H103.384V40.9082ZM100.144 41.0982C100.051 40.8638 99.9896 40.649 99.9558 40.4533L99.3645 40.5552C99.4065 40.7985 99.481 41.0531 99.5854 41.3181L100.144 41.0982ZM99.9558 40.4533C99.9198 40.2446 99.8905 40.004 99.8684 39.7307L99.2703 39.7792C99.2936 40.066 99.3248 40.325 99.3645 40.5552L99.9558 40.4533ZM99.3488 39.5516C98.9229 40.0136 98.4316 40.4075 97.8739 40.7335L98.1766 41.2515C98.7845 40.8962 99.3227 40.4651 99.7899 39.9583L99.3488 39.5516ZM97.8755 40.7325C97.2289 41.1051 96.4942 41.2942 95.6637 41.2942V41.8942C96.5893 41.8942 97.429 41.6822 98.175 41.2524L97.8755 40.7325ZM95.6637 41.2942C94.6039 41.2942 93.7499 40.9951 93.0785 40.4137L92.6857 40.8673C93.4827 41.5575 94.4831 41.8942 95.6637 41.8942V41.2942ZM93.081 40.4159C92.432 39.8413 92.0922 39.0225 92.0922 37.9157H91.4922C91.4922 39.1552 91.879 40.153 92.6832 40.8651L93.081 40.4159ZM92.0922 37.9157C92.0922 36.4856 92.6346 35.4913 93.7026 34.8712L93.4013 34.3523C92.1229 35.0947 91.4922 36.303 91.4922 37.9157H92.0922ZM93.7018 34.8717C94.2948 34.5298 95.1951 34.2716 96.4282 34.1146L96.3525 33.5194C95.0878 33.6804 94.0959 33.952 93.4021 34.3519L93.7018 34.8717ZM96.4272 34.1148L97.5285 33.9785L97.4548 33.3831L96.3535 33.5193L96.4272 34.1148ZM112.967 33.2721L112.669 33.3111L112.703 33.5721H112.967V33.2721ZM112.501 32.0232L112.75 31.8555L112.744 31.8467L112.501 32.0232ZM108.573 32.8974L108.291 32.7931L108.291 32.7937L108.573 32.8974ZM108.573 37.382L108.854 37.2767L108.853 37.2746L108.573 37.382ZM112.944 36.7235V36.4235H112.674L112.645 36.6923L112.944 36.7235ZM116.248 36.7235L116.547 36.7466L116.572 36.4235H116.248V36.7235ZM115.18 39.5165L114.937 39.3406L114.937 39.3418L115.18 39.5165ZM114.522 29.5822L114.349 29.827L114.35 29.8277L114.522 29.5822ZM116.282 33.2721V33.5721H116.614L116.58 33.2413L116.282 33.2721ZM113.264 33.2331C113.198 32.7273 113.027 32.2666 112.75 31.8556L112.252 32.1908C112.475 32.5215 112.614 32.8934 112.669 33.3111L113.264 33.2331ZM112.744 31.8467C112.31 31.251 111.644 30.9738 110.809 30.9738V31.5738C111.503 31.5738 111.965 31.7963 112.258 32.1996L112.744 31.8467ZM110.809 30.9738C110.213 30.9738 109.689 31.1227 109.257 31.4369C108.825 31.7502 108.507 32.2105 108.291 32.7931L108.854 33.0017C109.039 32.5019 109.295 32.1504 109.609 31.9225C109.922 31.6956 110.316 31.5738 110.809 31.5738V30.9738ZM108.291 32.7937C108.062 33.4153 107.955 34.2192 107.955 35.1908H108.555C108.555 34.2551 108.659 33.53 108.854 33.0011L108.291 32.7937ZM107.955 35.1908C107.955 36.1183 108.062 36.8894 108.293 37.4895L108.853 37.2746C108.659 36.7696 108.555 36.0799 108.555 35.1908H107.955ZM108.292 37.4874C108.501 38.045 108.811 38.4855 109.234 38.7849C109.657 39.0848 110.169 39.2261 110.753 39.2261V38.6261C110.268 38.6261 109.884 38.5101 109.581 38.2953C109.277 38.08 109.031 37.7485 108.854 37.2767L108.292 37.4874ZM110.753 39.2261C111.558 39.2261 112.204 39.0081 112.602 38.4972L112.128 38.1289C111.89 38.4354 111.461 38.6261 110.753 38.6261V39.2261ZM112.602 38.4972C112.962 38.034 113.17 37.4469 113.242 36.7548L112.645 36.6923C112.582 37.3021 112.403 37.7747 112.128 38.1289L112.602 38.4972ZM112.944 37.0235H116.248V36.4235H112.944V37.0235ZM115.949 36.7005C115.878 37.624 115.544 38.5028 114.937 39.3406L115.423 39.6925C116.088 38.7742 116.466 37.7911 116.547 36.7466L115.949 36.7005ZM114.937 39.3418C113.987 40.6664 112.583 41.3396 110.673 41.3396V41.9396C112.745 41.9396 114.345 41.1974 115.424 39.6913L114.937 39.3418ZM110.673 41.3396C108.742 41.3396 107.379 40.7695 106.514 39.6818L106.044 40.0551C107.057 41.329 108.622 41.9396 110.673 41.9396V41.3396ZM106.514 39.6818C105.627 38.5662 105.171 37.1045 105.171 35.2703H104.571C104.571 37.2055 105.054 38.8092 106.044 40.0551L106.514 39.6818ZM105.171 35.2703C105.171 33.1903 105.678 31.616 106.652 30.5068L106.201 30.1108C105.102 31.3631 104.571 33.0965 104.571 35.2703H105.171ZM106.652 30.5068C107.623 29.4015 108.965 28.8376 110.719 28.8376V28.2376C108.823 28.2376 107.305 28.8545 106.201 30.1108L106.652 30.5068ZM110.719 28.8376C112.226 28.8376 113.428 29.1756 114.349 29.827L114.695 29.3373C113.648 28.596 112.314 28.2376 110.719 28.2376V28.8376ZM114.35 29.8277C115.242 30.4545 115.806 31.5848 115.983 33.3028L116.58 33.2413C116.394 31.4322 115.785 30.1025 114.694 29.3367L114.35 29.8277ZM116.282 32.9721H112.967V33.5721H116.282V32.9721ZM118.484 24.5298V24.2298H118.184V24.5298H118.484ZM121.663 24.5298H121.963V24.2298H121.663V24.5298ZM121.663 33.5445H121.363V34.3493L121.89 33.7409L121.663 33.5445ZM125.694 28.8896V28.5896H125.557L125.467 28.6932L125.694 28.8896ZM129.702 28.8896L129.923 29.092L130.382 28.5896H129.702V28.8896ZM125.376 33.624L125.154 33.4217L125.005 33.5858L125.118 33.777L125.376 33.624ZM129.872 41.2082V41.5082H130.399L130.13 41.0552L129.872 41.2082ZM125.966 41.2082L125.705 41.3548L125.791 41.5082H125.966V41.2082ZM123.003 35.9174L123.265 35.7708L123.067 35.4175L122.787 35.7098L123.003 35.9174ZM121.663 37.3139L121.447 37.1062L121.363 37.1933V37.3139H121.663ZM121.663 41.2082V41.5082H121.963V41.2082H121.663ZM118.484 41.2082H118.184V41.5082H118.484V41.2082ZM118.484 24.8298H121.663V24.2298H118.484V24.8298ZM121.363 24.5298V33.5445H121.963V24.5298H121.363ZM121.89 33.7409L125.921 29.086L125.467 28.6932L121.437 33.3482L121.89 33.7409ZM125.694 29.1896H129.702V28.5896H125.694V29.1896ZM129.48 28.6872L125.154 33.4217L125.597 33.8264L129.923 29.092L129.48 28.6872ZM125.118 33.777L129.614 41.3612L130.13 41.0552L125.634 33.471L125.118 33.777ZM129.872 40.9082H125.966V41.5082H129.872V40.9082ZM126.228 41.0616L123.265 35.7708L122.741 36.064L125.705 41.3548L126.228 41.0616ZM122.787 35.7098L121.447 37.1062L121.88 37.5216L123.22 36.1251L122.787 35.7098ZM121.363 37.3139V41.2082H121.963V37.3139H121.363ZM121.663 40.9082H118.484V41.5082H121.663V40.9082ZM118.784 41.2082V24.5298H118.184V41.2082H118.784ZM134.845 27.3569V27.6569H135.145V27.3569H134.845ZM131.609 27.3569H131.309V27.6569H131.609V27.3569ZM131.609 24.3709V24.0709H131.309V24.3709H131.609ZM134.845 24.3709H135.145V24.0709H134.845V24.3709ZM130.054 43.5811L130.079 43.2821L129.754 43.255V43.5811H130.054ZM130.44 43.6038L130.469 43.3053L130.455 43.3038H130.44V43.6038ZM131.359 43.3767L131.157 43.1547L131.152 43.1595L131.147 43.1646L131.359 43.3767ZM131.609 28.8896V28.5896H131.309V28.8896H131.609ZM134.845 28.8896H135.145V28.5896H134.845V28.8896ZM130.769 46.1924L130.757 46.4922L130.757 46.4922L130.769 46.1924ZM130.054 46.1697H129.754V46.4619L130.046 46.4696L130.054 46.1697ZM134.845 27.0569H131.609V27.6569H134.845V27.0569ZM131.909 27.3569V24.3709H131.309V27.3569H131.909ZM131.609 24.6709H134.845V24.0709H131.609V24.6709ZM134.545 24.3709V27.3569H135.145V24.3709H134.545ZM130.029 43.88C130.21 43.8952 130.35 43.9038 130.44 43.9038V43.3038C130.378 43.3038 130.26 43.2973 130.079 43.2821L130.029 43.88ZM130.41 43.9023C130.493 43.9106 130.571 43.9151 130.644 43.9151V43.3151C130.596 43.3151 130.538 43.3121 130.469 43.3053L130.41 43.9023ZM130.644 43.9151C131.008 43.9151 131.336 43.8239 131.571 43.5889L131.147 43.1646C131.064 43.2474 130.916 43.3151 130.644 43.3151V43.9151ZM131.561 43.5987C131.829 43.3549 131.909 42.9374 131.909 42.4798H131.309C131.309 42.9153 131.222 43.0957 131.157 43.1547L131.561 43.5987ZM131.909 42.4798V28.8896H131.309V42.4798H131.909ZM131.609 29.1896H134.845V28.5896H131.609V29.1896ZM134.545 28.8896V42.5366H135.145V28.8896H134.545ZM134.545 42.5366C134.545 43.7557 134.303 44.5962 133.875 45.1162L134.338 45.4974C134.895 44.8215 135.145 43.8152 135.145 42.5366H134.545ZM133.875 45.1162C133.474 45.6041 132.631 45.9037 131.212 45.9037V46.5037C132.668 46.5037 133.756 46.2054 134.338 45.4974L133.875 45.1162ZM131.212 45.9037C131.119 45.9037 130.976 45.9002 130.78 45.8926L130.757 46.4922C130.955 46.4998 131.107 46.5037 131.212 46.5037V45.9037ZM130.781 45.8926C130.59 45.885 130.35 45.8774 130.061 45.8698L130.046 46.4696C130.333 46.4771 130.57 46.4847 130.757 46.4922L130.781 45.8926ZM130.354 46.1697V43.5811H129.754V46.1697H130.354ZM141.157 28.8328H141.457V28.5328H141.157V28.8328ZM141.407 37.8816L141.135 38.0088L141.136 38.0092L141.407 37.8816ZM145.415 37.4842L145.688 37.6091L145.69 37.6045L145.415 37.4842ZM145.733 28.8328V28.5328H145.433V28.8328H145.733ZM149.014 28.8328H149.314V28.5328H149.014V28.8328ZM149.014 41.2082V41.5082H149.314V41.2082H149.014ZM145.869 41.2082H145.569V41.5082H145.869V41.2082ZM145.869 39.4597H146.169V38.6045L145.635 39.2723L145.869 39.4597ZM145.211 40.2999L145.014 40.0728L145.01 40.0764L145.211 40.2999ZM143.735 41.2309L143.636 40.9477L143.634 40.9482L143.735 41.2309ZM138.376 39.5052L138.646 39.3747L138.645 39.3732L138.376 39.5052ZM137.842 28.8328V28.5328H137.542V28.8328H137.842ZM140.857 28.8328V36.2921H141.457V28.8328H140.857ZM140.857 36.2921C140.857 37.0105 140.941 37.5932 141.135 38.0088L141.679 37.7544C141.54 37.4585 141.457 36.9815 141.457 36.2921H140.857ZM141.136 38.0092C141.309 38.3779 141.571 38.6628 141.92 38.8521C142.265 39.0392 142.678 39.1239 143.144 39.1239V38.5239C142.748 38.5239 142.44 38.4517 142.206 38.3247C141.976 38.1998 141.801 38.0135 141.679 37.754L141.136 38.0092ZM143.144 39.1239C143.737 39.1239 144.258 39.0041 144.693 38.7474C145.131 38.4893 145.461 38.1046 145.688 37.6091L145.142 37.3594C144.96 37.757 144.708 38.0421 144.388 38.2306C144.066 38.4205 143.657 38.5239 143.144 38.5239V39.1239ZM145.69 37.6045C145.925 37.068 146.033 36.3827 146.033 35.5655H145.433C145.433 36.3377 145.329 36.9316 145.14 37.364L145.69 37.6045ZM146.033 35.5655V28.8328H145.433V35.5655H146.033ZM145.733 29.1328H149.014V28.5328H145.733V29.1328ZM148.714 28.8328V41.2082H149.314V28.8328H148.714ZM149.014 40.9082H145.869V41.5082H149.014V40.9082ZM146.169 41.2082V39.4597H145.569V41.2082H146.169ZM145.635 39.2723C145.592 39.3256 145.506 39.4557 145.389 39.6386L145.895 39.9621C145.955 39.8682 146.003 39.7942 146.039 39.7397C146.057 39.7124 146.072 39.6908 146.084 39.6744C146.089 39.6662 146.094 39.6598 146.098 39.6549C146.099 39.6525 146.101 39.6506 146.102 39.6493C146.102 39.6486 146.103 39.6481 146.103 39.6477C146.103 39.6475 146.103 39.6474 146.103 39.6473C146.103 39.6472 146.103 39.6472 146.103 39.6472L145.635 39.2723ZM145.389 39.6386C145.284 39.804 145.159 39.9484 145.014 40.0729L145.407 40.527C145.596 40.3638 145.758 40.1752 145.895 39.9621L145.389 39.6386ZM145.01 40.0764C144.523 40.5128 144.065 40.7979 143.636 40.9477L143.834 41.5141C144.358 41.3309 144.884 40.9953 145.411 40.5234L145.01 40.0764ZM143.634 40.9482C143.205 41.1006 142.688 41.1807 142.077 41.1807V41.7807C142.738 41.7807 143.326 41.6942 143.835 41.5136L143.634 40.9482ZM142.077 41.1807C141.196 41.1807 140.481 41.0221 139.919 40.7221C139.361 40.4243 138.938 39.9788 138.646 39.3747L138.106 39.6356C138.45 40.3486 138.961 40.8908 139.637 41.2515C140.308 41.61 141.127 41.7807 142.077 41.7807V41.1807ZM138.645 39.3732C138.319 38.7078 138.142 37.6912 138.142 36.2921H137.542C137.542 37.7238 137.721 38.8493 138.106 39.6371L138.645 39.3732ZM138.142 36.2921V28.8328H137.542V36.2921H138.142ZM137.842 29.1328H141.157V28.5328H137.842V29.1328ZM162.139 29.5481L161.947 29.7788L161.949 29.7807L162.139 29.5481ZM163.365 41.2082V41.5082H163.665V41.2082H163.365ZM160.05 41.2082H159.75V41.5082H160.05V41.2082ZM155.713 32.6249L155.438 32.5043L155.437 32.5062L155.713 32.6249ZM155.395 41.2082V41.5082H155.695V41.2082H155.395ZM152.17 41.2082H151.87V41.5082H152.17V41.2082ZM152.17 28.8555V28.5555H151.87V28.8555H152.17ZM155.293 28.8555H155.593V28.5555H155.293V28.8555ZM155.293 30.6608H154.993V31.6666L155.544 30.8251L155.293 30.6608ZM156.473 29.287L156.293 29.047L156.293 29.0476L156.473 29.287ZM159.005 28.8376C160.23 28.8376 161.202 29.159 161.947 29.7787L162.331 29.3175C161.456 28.5899 160.339 28.2376 159.005 28.2376V28.8376ZM161.949 29.7807C162.669 30.3669 163.065 31.3694 163.065 32.8747H163.665C163.665 31.2766 163.244 30.0614 162.328 29.3155L161.949 29.7807ZM163.065 32.8747V41.2082H163.665V32.8747H163.065ZM163.365 40.9082H160.05V41.5082H163.365V40.9082ZM160.35 41.2082V33.6808H159.75V41.2082H160.35ZM160.35 33.6808C160.35 33.0107 160.261 32.4568 160.057 32.048L159.52 32.3163C159.664 32.6038 159.75 33.049 159.75 33.6808H160.35ZM160.057 32.048C159.674 31.2827 158.944 30.9284 157.972 30.9284V31.5284C158.786 31.5284 159.267 31.8099 159.52 32.3163L160.057 32.048ZM157.972 30.9284C157.381 30.9284 156.86 31.054 156.426 31.3224C155.991 31.5917 155.663 31.9917 155.438 32.5043L155.987 32.7455C156.171 32.3272 156.424 32.0289 156.742 31.8327C157.061 31.6356 157.466 31.5284 157.972 31.5284V30.9284ZM155.437 32.5062C155.204 33.0481 155.095 33.7204 155.095 34.5096H155.695C155.695 33.7698 155.798 33.1857 155.988 32.7436L155.437 32.5062ZM155.095 34.5096V41.2082H155.695V34.5096H155.095ZM155.395 40.9082H152.17V41.5082H155.395V40.9082ZM152.47 41.2082V28.8555H151.87V41.2082H152.47ZM152.17 29.1555H155.293V28.5555H152.17V29.1555ZM154.993 28.8555V30.6608H155.593V28.8555H154.993ZM155.544 30.8251C155.951 30.2022 156.323 29.7766 156.654 29.5264L156.293 29.0476C155.882 29.3574 155.466 29.8477 155.042 30.4964L155.544 30.8251ZM156.653 29.527C157.257 29.0745 158.033 28.8376 159.005 28.8376V28.2376C157.933 28.2376 157.022 28.5003 156.293 29.047L156.653 29.527ZM169.689 27.3569V27.6569H169.989V27.3569H169.689ZM166.408 27.3569H166.108V27.6569H166.408V27.3569ZM166.408 24.3709V24.0709H166.108V24.3709H166.408ZM169.689 24.3709H169.989V24.0709H169.689V24.3709ZM166.408 28.8328V28.5328H166.108V28.8328H166.408ZM169.689 28.8328H169.989V28.5328H169.689V28.8328ZM169.689 41.2082V41.5082H169.989V41.2082H169.689ZM166.408 41.2082H166.108V41.5082H166.408V41.2082ZM169.689 27.0569H166.408V27.6569H169.689V27.0569ZM166.708 27.3569V24.3709H166.108V27.3569H166.708ZM166.408 24.6709H169.689V24.0709H166.408V24.6709ZM169.389 24.3709V27.3569H169.989V24.3709H169.389ZM166.408 29.1328H169.689V28.5328H166.408V29.1328ZM169.389 28.8328V41.2082H169.989V28.8328H169.389ZM169.689 40.9082H166.408V41.5082H169.689V40.9082ZM166.708 41.2082V28.8328H166.108V41.2082H166.708ZM180.566 32.1821L180.326 32.3626L180.327 32.3639L180.566 32.1821ZM176.194 32.1821L175.956 32L175.956 32.0004L176.194 32.1821ZM176.194 37.9157L175.955 38.0961L175.956 38.0978L176.194 37.9157ZM183.154 39.7095L183.387 39.8986L183.388 39.8979L183.154 39.7095ZM173.64 39.7095L173.406 39.8979L173.407 39.8986L173.64 39.7095ZM178.386 39.2261C179.413 39.2261 180.234 38.855 180.805 38.0961L180.326 37.7352C179.883 38.3236 179.251 38.6261 178.386 38.6261V39.2261ZM180.805 38.0961C181.366 37.351 181.626 36.3202 181.626 35.0432H181.026C181.026 36.2489 180.779 37.133 180.326 37.7352L180.805 38.0961ZM181.626 35.0432C181.626 33.7666 181.366 32.7386 180.804 32.0004L180.327 32.3639C180.779 32.9578 181.026 33.8372 181.026 35.0432H181.626ZM180.805 32.0017C180.234 31.2428 179.413 30.8717 178.386 30.8717V31.4717C179.251 31.4717 179.883 31.7742 180.326 32.3626L180.805 32.0017ZM178.386 30.8717C177.358 30.8717 176.535 31.2427 175.956 32L176.433 32.3643C176.884 31.7742 177.521 31.4717 178.386 31.4717V30.8717ZM175.956 32.0004C175.394 32.7386 175.134 33.7666 175.134 35.0432H175.734C175.734 33.8372 175.981 32.9578 176.433 32.3639L175.956 32.0004ZM175.134 35.0432C175.134 36.3202 175.394 37.351 175.955 38.0961L176.434 37.7352C175.981 37.133 175.734 36.2489 175.734 35.0432H175.134ZM175.956 38.0978C176.535 38.8551 177.358 39.2261 178.386 39.2261V38.6261C177.521 38.6261 176.884 38.3235 176.433 37.7335L175.956 38.0978ZM184.421 35.0432C184.421 36.798 183.918 38.2852 182.921 39.5211L183.388 39.8979C184.479 38.5452 185.021 36.9216 185.021 35.0432H184.421ZM182.921 39.5204C181.949 40.718 180.461 41.3396 178.397 41.3396V41.9396C180.587 41.9396 182.27 41.2745 183.387 39.8986L182.921 39.5204ZM178.397 41.3396C176.333 41.3396 174.845 40.718 173.873 39.5204L173.407 39.8986C174.524 41.2745 176.207 41.9396 178.397 41.9396V41.3396ZM173.873 39.5211C172.876 38.2852 172.373 36.798 172.373 35.0432H171.773C171.773 36.9216 172.315 38.5452 173.406 39.8979L173.873 39.5211ZM172.373 35.0432C172.373 33.3201 172.875 31.8393 173.874 30.5867L173.405 30.2125C172.315 31.5788 171.773 33.1938 171.773 35.0432H172.373ZM173.874 30.5867C174.847 29.3673 176.335 28.7355 178.397 28.7355V28.1355C176.206 28.1355 174.522 28.8131 173.405 30.2125L173.874 30.5867ZM178.397 28.7355C180.459 28.7355 181.947 29.3673 182.92 30.5867L183.389 30.2125C182.272 28.8131 180.588 28.1355 178.397 28.1355V28.7355ZM182.92 30.5867C183.919 31.8393 184.421 33.3201 184.421 35.0432H185.021C185.021 33.1938 184.478 31.5788 183.389 30.2125L182.92 30.5867ZM193.917 28.549L193.858 28.8432L193.888 28.849H193.917V28.549ZM194.201 28.5603H194.501V28.2757L194.217 28.2608L194.201 28.5603ZM194.201 31.8756L194.168 32.1737L194.501 32.2108V31.8756H194.201ZM190.647 33.0904L190.382 32.9506L190.382 32.9512L190.647 33.0904ZM190.273 41.2082V41.5082H190.573V41.2082H190.273ZM187.014 41.2082H186.714V41.5082H187.014V41.2082ZM187.014 28.8328V28.5328H186.714V28.8328H187.014ZM190.102 28.8328H190.402V28.5328H190.102V28.8328ZM190.102 30.99H189.802V32.0647L190.359 31.1454L190.102 30.99ZM191.408 29.2983L191.598 29.5307L191.601 29.5283L191.408 29.2983ZM193.77 28.8376C193.82 28.8376 193.848 28.841 193.858 28.8432L193.976 28.2548C193.911 28.2418 193.84 28.2376 193.77 28.2376V28.8376ZM193.917 28.849C193.953 28.849 194.04 28.8523 194.185 28.8599L194.217 28.2608C194.075 28.2533 193.972 28.249 193.917 28.249V28.849ZM193.901 28.5603V31.8756H194.501V28.5603H193.901ZM194.234 31.5774C194.025 31.5542 193.837 31.5384 193.67 31.5305L193.642 32.1298C193.793 32.137 193.968 32.1515 194.168 32.1737L194.234 31.5774ZM193.67 31.5305C193.509 31.5228 193.375 31.5188 193.27 31.5188V32.1188C193.362 32.1188 193.485 32.1224 193.642 32.1298L193.67 31.5305ZM193.27 31.5188C191.903 31.5188 190.899 31.9694 190.382 32.9506L190.913 33.2302C191.289 32.5159 192.034 32.1188 193.27 32.1188V31.5188ZM190.382 32.9512C190.098 33.4936 189.973 34.2873 189.973 35.293H190.573C190.573 34.3156 190.698 33.6409 190.913 33.2296L190.382 32.9512ZM189.973 35.293V41.2082H190.573V35.293H189.973ZM190.273 40.9082H187.014V41.5082H190.273V40.9082ZM187.314 41.2082V28.8328H186.714V41.2082H187.314ZM187.014 29.1328H190.102V28.5328H187.014V29.1328ZM189.802 28.8328V30.99H190.402V28.8328H189.802ZM190.359 31.1454C190.855 30.3262 191.269 29.7994 191.598 29.5307L191.218 29.0659C190.806 29.4027 190.349 30.0038 189.846 30.8346L190.359 31.1454ZM191.601 29.5283C192.141 29.076 192.855 28.8376 193.77 28.8376V28.2376C192.747 28.2376 191.886 28.5064 191.216 29.0683L191.601 29.5283Z" fill="black"/>
<defs>
<filter id="filter0_d_5774_13560" x="2.32109" y="3.13052" width="55.3279" height="57.826" filterUnits="userSpaceOnUse" color-interpolation-filters="sRGB">
<feFlood flood-opacity="0" result="BackgroundImageFix"/>
<feColorMatrix in="SourceAlpha" type="matrix" values="0 0 0 0 0 0 0 0 0 0 0 0 0 0 0 0 0 0 127 0" result="hardAlpha"/>
<feOffset dx="-2.74249" dy="4.79937"/>
<feGaussianBlur stdDeviation="1.71406"/>
<feColorMatrix type="matrix" values="0 0 0 0 1 0 0 0 0 0.0705882 0 0 0 0 0.498039 0 0 0 0.26 0"/>
<feBlend mode="normal" in2="BackgroundImageFix" result="effect1_dropShadow_5774_13560"/>
<feBlend mode="normal" in="SourceGraphic" in2="effect1_dropShadow_5774_13560" result="shape"/>
</filter>
<linearGradient id="paint0_linear_5774_13560" x1="54.1818" y1="21.4544" x2="15.5061" y2="43.3516" gradientUnits="userSpaceOnUse">
<stop stop-color="#FF0B0B"/>
<stop offset="1" stop-color="#2E00FF"/>
</linearGradient>
<linearGradient id="paint1_linear_5774_13560" x1="32.523" y1="3.13052" x2="32.523" y2="20.6628" gradientUnits="userSpaceOnUse">
<stop stop-color="#FF0B80"/>
<stop offset="1" stop-color="#FF84BF"/>
</linearGradient>
<linearGradient id="paint2_linear_5774_13560" x1="6.16617" y1="0" x2="6.16617" y2="12.3323" gradientUnits="userSpaceOnUse">
<stop stop-color="#FFC700"/>
<stop offset="1" stop-color="#B68E00"/>
</linearGradient>
<linearGradient id="paint3_linear_5774_13560" x1="6.16617" y1="0" x2="6.16617" y2="12.3323" gradientUnits="userSpaceOnUse">
<stop stop-color="#00FF19"/>
<stop offset="1" stop-color="#00A638"/>
</linearGradient>
<linearGradient id="paint4_linear_5774_13560" x1="6.16617" y1="0" x2="6.16617" y2="12.3323" gradientUnits="userSpaceOnUse">
<stop stop-color="#0F0054"/>
<stop offset="1" stop-color="#0F029C"/>
</linearGradient>
</defs>
</svg>
